<mxfile host="app.diagrams.net" modified="2020-10-07T12:18:32.709Z" agent="5.0 (Windows NT 10.0; Win64; x64) AppleWebKit/537.36 (KHTML, like Gecko) Chrome/85.0.4183.121 Safari/537.36" etag="hv25f3lQiQw8n66zGoco" version="13.7.7" type="github" pages="2">
  <diagram id="C5RBs43oDa-KdzZeNtuy" name="Process">
    <mxGraphModel dx="1318" dy="808" grid="1" gridSize="10" guides="1" tooltips="1" connect="1" arrows="1" fold="1" page="1" pageScale="5" pageWidth="827" pageHeight="1169" math="0" shadow="0">
      <root>
        <mxCell id="WIyWlLk6GJQsqaUBKTNV-0" />
        <mxCell id="WIyWlLk6GJQsqaUBKTNV-1" parent="WIyWlLk6GJQsqaUBKTNV-0" />
        <mxCell id="5MN-hVibq4f068yrZOm2-0" value="" style="group" parent="WIyWlLk6GJQsqaUBKTNV-1" vertex="1" connectable="0">
          <mxGeometry x="950" y="70" width="1750" height="3990" as="geometry" />
        </mxCell>
        <mxCell id="NXojXSi49g-Y3K-OqPZ--0" value="&lt;span style=&quot;font-size: 18px&quot;&gt;등록업무&lt;/span&gt;" style="rounded=1;whiteSpace=wrap;html=1;fontStyle=1" parent="5MN-hVibq4f068yrZOm2-0" vertex="1">
          <mxGeometry x="1290" width="100" height="40" as="geometry" />
        </mxCell>
        <mxCell id="NXojXSi49g-Y3K-OqPZ--2" value="" style="endArrow=classic;html=1;fontStyle=1" parent="5MN-hVibq4f068yrZOm2-0" edge="1">
          <mxGeometry width="50" height="50" relative="1" as="geometry">
            <mxPoint x="1339.5" y="40" as="sourcePoint" />
            <mxPoint x="1340" y="130" as="targetPoint" />
          </mxGeometry>
        </mxCell>
        <mxCell id="NXojXSi49g-Y3K-OqPZ--3" value="&lt;font style=&quot;font-size: 18px&quot;&gt;Daily인가?&lt;/font&gt;" style="rhombus;whiteSpace=wrap;html=1;fontStyle=1" parent="5MN-hVibq4f068yrZOm2-0" vertex="1">
          <mxGeometry x="1275" y="130" width="130" height="80" as="geometry" />
        </mxCell>
        <mxCell id="NXojXSi49g-Y3K-OqPZ--5" value="&lt;span style=&quot;font-size: 18px&quot;&gt;No(대량)&lt;/span&gt;" style="text;html=1;strokeColor=none;fillColor=none;align=center;verticalAlign=middle;whiteSpace=wrap;rounded=0;fontStyle=1" parent="5MN-hVibq4f068yrZOm2-0" vertex="1">
          <mxGeometry x="1410" y="135" width="110" height="20" as="geometry" />
        </mxCell>
        <mxCell id="NXojXSi49g-Y3K-OqPZ--6" value="" style="edgeStyle=segmentEdgeStyle;endArrow=classic;html=1;fontStyle=1" parent="5MN-hVibq4f068yrZOm2-0" edge="1">
          <mxGeometry width="50" height="50" relative="1" as="geometry">
            <mxPoint x="1275" y="170" as="sourcePoint" />
            <mxPoint x="1040" y="270" as="targetPoint" />
            <Array as="points">
              <mxPoint x="1040" y="170" />
              <mxPoint x="1040" y="270" />
            </Array>
          </mxGeometry>
        </mxCell>
        <mxCell id="NXojXSi49g-Y3K-OqPZ--7" value="&lt;span style=&quot;font-size: 18px&quot;&gt;No&lt;/span&gt;" style="text;html=1;strokeColor=none;fillColor=none;align=center;verticalAlign=middle;whiteSpace=wrap;rounded=0;fontStyle=1" parent="5MN-hVibq4f068yrZOm2-0" vertex="1">
          <mxGeometry x="1010" y="410" width="120" height="20" as="geometry" />
        </mxCell>
        <mxCell id="NXojXSi49g-Y3K-OqPZ--8" value="&lt;font style=&quot;font-size: 18px&quot;&gt;유통사&lt;br&gt;신규 CMS 오픈&amp;nbsp;&lt;br&gt;여부 확인&lt;/font&gt;" style="rhombus;whiteSpace=wrap;html=1;fontStyle=1" parent="5MN-hVibq4f068yrZOm2-0" vertex="1">
          <mxGeometry x="930" y="270" width="220" height="120" as="geometry" />
        </mxCell>
        <mxCell id="NXojXSi49g-Y3K-OqPZ--10" value="&lt;span style=&quot;font-size: 18px&quot;&gt;신규 오픈 유통사&lt;/span&gt;" style="text;html=1;strokeColor=none;fillColor=none;align=center;verticalAlign=middle;whiteSpace=wrap;rounded=0;fontStyle=1" parent="5MN-hVibq4f068yrZOm2-0" vertex="1">
          <mxGeometry x="680" y="290" width="180" height="20" as="geometry" />
        </mxCell>
        <mxCell id="NXojXSi49g-Y3K-OqPZ--12" value="&lt;span style=&quot;font-size: 18px&quot;&gt;Yes&lt;/span&gt;" style="text;html=1;strokeColor=none;fillColor=none;align=center;verticalAlign=middle;whiteSpace=wrap;rounded=0;fontStyle=1" parent="5MN-hVibq4f068yrZOm2-0" vertex="1">
          <mxGeometry x="710" y="340" width="120" height="20" as="geometry" />
        </mxCell>
        <mxCell id="NXojXSi49g-Y3K-OqPZ--13" value="" style="endArrow=classic;html=1;fontStyle=1" parent="5MN-hVibq4f068yrZOm2-0" target="NXojXSi49g-Y3K-OqPZ--14" edge="1">
          <mxGeometry width="50" height="50" relative="1" as="geometry">
            <mxPoint x="1042" y="390" as="sourcePoint" />
            <mxPoint x="1040" y="430" as="targetPoint" />
          </mxGeometry>
        </mxCell>
        <mxCell id="NXojXSi49g-Y3K-OqPZ--14" value="&lt;span style=&quot;font-size: 18px&quot;&gt;&lt;br&gt;메일 공지 확인&lt;br&gt;&lt;br&gt;&lt;/span&gt;" style="rounded=0;whiteSpace=wrap;html=1;fontStyle=1" parent="5MN-hVibq4f068yrZOm2-0" vertex="1">
          <mxGeometry x="962" y="475" width="160" height="65" as="geometry" />
        </mxCell>
        <mxCell id="NXojXSi49g-Y3K-OqPZ--17" value="&lt;font style=&quot;font-size: 18px&quot;&gt;검수 대기 상태&lt;/font&gt;" style="rounded=0;whiteSpace=wrap;html=1;fontStyle=1" parent="5MN-hVibq4f068yrZOm2-0" vertex="1">
          <mxGeometry x="430" y="470" width="160" height="60" as="geometry" />
        </mxCell>
        <mxCell id="NXojXSi49g-Y3K-OqPZ--18" value="" style="endArrow=classic;html=1;exitX=0.5;exitY=1;exitDx=0;exitDy=0;fontStyle=1" parent="5MN-hVibq4f068yrZOm2-0" source="NXojXSi49g-Y3K-OqPZ--14" edge="1">
          <mxGeometry width="50" height="50" relative="1" as="geometry">
            <mxPoint x="1041" y="580" as="sourcePoint" />
            <mxPoint x="1041.41" y="610" as="targetPoint" />
          </mxGeometry>
        </mxCell>
        <mxCell id="NXojXSi49g-Y3K-OqPZ--19" value="&lt;span style=&quot;font-size: 18px&quot;&gt;중요도가 높은&amp;nbsp;&lt;br&gt;앨범인가?&lt;br&gt;&lt;/span&gt;" style="rhombus;whiteSpace=wrap;html=1;fontStyle=1" parent="5MN-hVibq4f068yrZOm2-0" vertex="1">
          <mxGeometry x="930" y="610" width="220" height="120" as="geometry" />
        </mxCell>
        <mxCell id="NXojXSi49g-Y3K-OqPZ--21" value="" style="endArrow=classic;html=1;fontStyle=1" parent="5MN-hVibq4f068yrZOm2-0" edge="1">
          <mxGeometry width="50" height="50" relative="1" as="geometry">
            <mxPoint x="509.40999999999985" y="530" as="sourcePoint" />
            <mxPoint x="509.40999999999985" y="610" as="targetPoint" />
          </mxGeometry>
        </mxCell>
        <mxCell id="NXojXSi49g-Y3K-OqPZ--22" value="&lt;span style=&quot;font-size: 18px&quot;&gt;중요도가 높은&amp;nbsp;&lt;br&gt;앨범인가?&lt;br&gt;&lt;/span&gt;" style="rhombus;whiteSpace=wrap;html=1;fontStyle=1" parent="5MN-hVibq4f068yrZOm2-0" vertex="1">
          <mxGeometry x="400" y="610" width="220" height="120" as="geometry" />
        </mxCell>
        <mxCell id="NXojXSi49g-Y3K-OqPZ--23" value="&lt;font style=&quot;font-size: 18px&quot;&gt;Trello 기록&lt;/font&gt;" style="rounded=0;whiteSpace=wrap;html=1;fontStyle=1" parent="5MN-hVibq4f068yrZOm2-0" vertex="1">
          <mxGeometry x="980" y="810" width="120" height="60" as="geometry" />
        </mxCell>
        <mxCell id="NXojXSi49g-Y3K-OqPZ--24" value="&lt;span style=&quot;font-size: 18px&quot;&gt;Yes&lt;/span&gt;" style="text;html=1;strokeColor=none;fillColor=none;align=center;verticalAlign=middle;whiteSpace=wrap;rounded=0;fontStyle=1" parent="5MN-hVibq4f068yrZOm2-0" vertex="1">
          <mxGeometry x="420" y="760" width="120" height="20" as="geometry" />
        </mxCell>
        <mxCell id="NXojXSi49g-Y3K-OqPZ--28" value="" style="endArrow=classic;html=1;fontStyle=1" parent="5MN-hVibq4f068yrZOm2-0" edge="1">
          <mxGeometry width="50" height="50" relative="1" as="geometry">
            <mxPoint x="1039.41" y="730" as="sourcePoint" />
            <mxPoint x="1039.41" y="810" as="targetPoint" />
          </mxGeometry>
        </mxCell>
        <mxCell id="NXojXSi49g-Y3K-OqPZ--29" value="" style="endArrow=classic;html=1;entryX=0.5;entryY=0;entryDx=0;entryDy=0;fontStyle=1" parent="5MN-hVibq4f068yrZOm2-0" target="NXojXSi49g-Y3K-OqPZ--44" edge="1">
          <mxGeometry width="50" height="50" relative="1" as="geometry">
            <mxPoint x="509.40999999999985" y="730" as="sourcePoint" />
            <mxPoint x="509.40999999999985" y="810" as="targetPoint" />
          </mxGeometry>
        </mxCell>
        <mxCell id="NXojXSi49g-Y3K-OqPZ--30" value="&lt;span style=&quot;font-size: 18px&quot;&gt;Yes&lt;/span&gt;" style="text;html=1;strokeColor=none;fillColor=none;align=center;verticalAlign=middle;whiteSpace=wrap;rounded=0;fontStyle=1" parent="5MN-hVibq4f068yrZOm2-0" vertex="1">
          <mxGeometry x="950" y="760" width="120" height="20" as="geometry" />
        </mxCell>
        <mxCell id="NXojXSi49g-Y3K-OqPZ--31" value="&lt;span style=&quot;font-size: 18px&quot;&gt;검수 완료&lt;/span&gt;" style="rounded=0;whiteSpace=wrap;html=1;fontStyle=1" parent="5MN-hVibq4f068yrZOm2-0" vertex="1">
          <mxGeometry x="720" y="1630" width="160" height="60" as="geometry" />
        </mxCell>
        <mxCell id="NXojXSi49g-Y3K-OqPZ--32" value="&lt;span style=&quot;font-size: 18px&quot;&gt;▶중요 앨범 기준◀&amp;nbsp;&lt;br&gt;1.사전 공지받은 중요 앨범&lt;br&gt;2. 누구나 알만한 아티스트&lt;br&gt;3. 주요 유통사 18시 발매 앨범&lt;br&gt;&lt;/span&gt;" style="text;html=1;strokeColor=none;fillColor=none;align=center;verticalAlign=middle;whiteSpace=wrap;rounded=0;fontStyle=1" parent="5MN-hVibq4f068yrZOm2-0" vertex="1">
          <mxGeometry x="635" y="580" width="280" height="190" as="geometry" />
        </mxCell>
        <mxCell id="NXojXSi49g-Y3K-OqPZ--33" value="" style="shape=curlyBracket;whiteSpace=wrap;html=1;rounded=1;fontStyle=1" parent="5MN-hVibq4f068yrZOm2-0" vertex="1">
          <mxGeometry x="630" y="620" width="20" height="110" as="geometry" />
        </mxCell>
        <mxCell id="NXojXSi49g-Y3K-OqPZ--37" value="" style="edgeStyle=elbowEdgeStyle;elbow=horizontal;endArrow=classic;html=1;fontStyle=1" parent="5MN-hVibq4f068yrZOm2-0" edge="1">
          <mxGeometry width="50" height="50" relative="1" as="geometry">
            <mxPoint x="400" y="670" as="sourcePoint" />
            <mxPoint x="480" y="980" as="targetPoint" />
            <Array as="points">
              <mxPoint x="340" y="800" />
            </Array>
          </mxGeometry>
        </mxCell>
        <mxCell id="NXojXSi49g-Y3K-OqPZ--38" value="" style="endArrow=classic;html=1;fontStyle=1" parent="5MN-hVibq4f068yrZOm2-0" edge="1">
          <mxGeometry width="50" height="50" relative="1" as="geometry">
            <mxPoint x="509.28999999999974" y="880" as="sourcePoint" />
            <mxPoint x="509" y="950" as="targetPoint" />
          </mxGeometry>
        </mxCell>
        <mxCell id="NXojXSi49g-Y3K-OqPZ--39" value="" style="edgeStyle=elbowEdgeStyle;elbow=horizontal;endArrow=classic;html=1;entryX=1;entryY=0.5;entryDx=0;entryDy=0;fontStyle=1" parent="5MN-hVibq4f068yrZOm2-0" target="NXojXSi49g-Y3K-OqPZ--46" edge="1">
          <mxGeometry width="50" height="50" relative="1" as="geometry">
            <mxPoint x="1150" y="670" as="sourcePoint" />
            <mxPoint x="1110" y="980" as="targetPoint" />
            <Array as="points">
              <mxPoint x="1190" y="920" />
              <mxPoint x="1210" y="840" />
            </Array>
          </mxGeometry>
        </mxCell>
        <mxCell id="NXojXSi49g-Y3K-OqPZ--40" value="" style="endArrow=classic;html=1;fontStyle=1" parent="5MN-hVibq4f068yrZOm2-0" edge="1">
          <mxGeometry width="50" height="50" relative="1" as="geometry">
            <mxPoint x="1039.4099999999999" y="870" as="sourcePoint" />
            <mxPoint x="1039.4099999999999" y="950" as="targetPoint" />
          </mxGeometry>
        </mxCell>
        <mxCell id="NXojXSi49g-Y3K-OqPZ--41" value="&lt;span style=&quot;font-size: 18px&quot;&gt;Yes&lt;/span&gt;" style="text;html=1;strokeColor=none;fillColor=none;align=center;verticalAlign=middle;whiteSpace=wrap;rounded=0;fontStyle=1" parent="5MN-hVibq4f068yrZOm2-0" vertex="1">
          <mxGeometry x="680" y="1445" width="120" height="20" as="geometry" />
        </mxCell>
        <mxCell id="NXojXSi49g-Y3K-OqPZ--42" value="&lt;span style=&quot;font-size: 18px&quot;&gt;No&lt;/span&gt;" style="text;html=1;strokeColor=none;fillColor=none;align=center;verticalAlign=middle;whiteSpace=wrap;rounded=0;fontStyle=1" parent="5MN-hVibq4f068yrZOm2-0" vertex="1">
          <mxGeometry x="1190" y="830" width="120" height="20" as="geometry" />
        </mxCell>
        <mxCell id="NXojXSi49g-Y3K-OqPZ--44" value="&lt;font style=&quot;font-size: 18px&quot;&gt;Trello 기록&lt;/font&gt;" style="rounded=0;whiteSpace=wrap;html=1;fontStyle=1" parent="5MN-hVibq4f068yrZOm2-0" vertex="1">
          <mxGeometry x="450" y="820" width="120" height="60" as="geometry" />
        </mxCell>
        <mxCell id="NXojXSi49g-Y3K-OqPZ--46" value="&lt;font style=&quot;font-size: 18px&quot;&gt;물리파일 수급&lt;br&gt;(웹하드/구글 첨부 자료)&lt;br&gt;&lt;/font&gt;" style="rounded=0;whiteSpace=wrap;html=1;fontStyle=1" parent="5MN-hVibq4f068yrZOm2-0" vertex="1">
          <mxGeometry x="923.5" y="950" width="237" height="60" as="geometry" />
        </mxCell>
        <mxCell id="_Ghy4deFd8bVYPHdU4sL-0" value="&lt;span style=&quot;font-size: 18px&quot;&gt;유통사 data 업로드&lt;/span&gt;" style="rounded=0;whiteSpace=wrap;html=1;fontStyle=1" parent="5MN-hVibq4f068yrZOm2-0" vertex="1">
          <mxGeometry x="430" y="300" width="160" height="60" as="geometry" />
        </mxCell>
        <mxCell id="_Ghy4deFd8bVYPHdU4sL-1" value="" style="endArrow=classic;html=1;entryX=1;entryY=0.5;entryDx=0;entryDy=0;fontStyle=1" parent="5MN-hVibq4f068yrZOm2-0" target="_Ghy4deFd8bVYPHdU4sL-0" edge="1">
          <mxGeometry width="50" height="50" relative="1" as="geometry">
            <mxPoint x="930" y="330" as="sourcePoint" />
            <mxPoint x="610" y="330" as="targetPoint" />
          </mxGeometry>
        </mxCell>
        <mxCell id="_Ghy4deFd8bVYPHdU4sL-3" value="" style="endArrow=classic;html=1;entryX=0.5;entryY=0;entryDx=0;entryDy=0;fontStyle=1" parent="5MN-hVibq4f068yrZOm2-0" target="NXojXSi49g-Y3K-OqPZ--17" edge="1">
          <mxGeometry width="50" height="50" relative="1" as="geometry">
            <mxPoint x="510" y="360" as="sourcePoint" />
            <mxPoint x="560" y="310" as="targetPoint" />
          </mxGeometry>
        </mxCell>
        <mxCell id="_Ghy4deFd8bVYPHdU4sL-10" value="&lt;font style=&quot;font-size: 18px&quot;&gt;물리파일 유효성&lt;br&gt;확인&lt;br&gt;&lt;/font&gt;" style="html=1;whiteSpace=wrap;aspect=fixed;shape=isoRectangle;fontStyle=1" parent="5MN-hVibq4f068yrZOm2-0" vertex="1">
          <mxGeometry x="942.4199999999998" y="1080" width="195.17" height="117.1" as="geometry" />
        </mxCell>
        <mxCell id="_Ghy4deFd8bVYPHdU4sL-11" value="" style="endArrow=classic;html=1;fontStyle=1;entryX=0.5;entryY=0;entryDx=0;entryDy=0;" parent="5MN-hVibq4f068yrZOm2-0" target="_Ghy4deFd8bVYPHdU4sL-41" edge="1">
          <mxGeometry width="50" height="50" relative="1" as="geometry">
            <mxPoint x="509.40999999999985" y="1009.9999999999998" as="sourcePoint" />
            <mxPoint x="509" y="1090" as="targetPoint" />
          </mxGeometry>
        </mxCell>
        <mxCell id="_Ghy4deFd8bVYPHdU4sL-12" value="" style="edgeStyle=elbowEdgeStyle;elbow=horizontal;endArrow=classic;html=1;fontStyle=1" parent="5MN-hVibq4f068yrZOm2-0" edge="1">
          <mxGeometry width="50" height="50" relative="1" as="geometry">
            <mxPoint x="440" y="1150" as="sourcePoint" />
            <mxPoint x="430" y="330" as="targetPoint" />
            <Array as="points">
              <mxPoint x="200" y="450" />
            </Array>
          </mxGeometry>
        </mxCell>
        <mxCell id="_Ghy4deFd8bVYPHdU4sL-13" value="&lt;span style=&quot;font-size: 18px&quot;&gt;물리파일 불완전&lt;/span&gt;" style="text;html=1;strokeColor=none;fillColor=none;align=center;verticalAlign=middle;whiteSpace=wrap;rounded=0;fontStyle=1" parent="5MN-hVibq4f068yrZOm2-0" vertex="1">
          <mxGeometry x="1170" y="1050" width="200" height="40" as="geometry" />
        </mxCell>
        <mxCell id="_Ghy4deFd8bVYPHdU4sL-14" value="" style="shape=curlyBracket;whiteSpace=wrap;html=1;rounded=1;fontStyle=1" parent="5MN-hVibq4f068yrZOm2-0" vertex="1">
          <mxGeometry x="610" y="1074.9" width="20" height="120" as="geometry" />
        </mxCell>
        <mxCell id="_Ghy4deFd8bVYPHdU4sL-15" value="&lt;span style=&quot;font-size: 18px&quot;&gt;▶물리파일/등록자 검수 유효성 확인◀&amp;nbsp;&lt;br&gt;1. jpg,메인아티스트,wav&lt;br&gt;&lt;/span&gt;" style="text;html=1;strokeColor=none;fillColor=none;align=center;verticalAlign=middle;whiteSpace=wrap;rounded=0;fontStyle=1" parent="5MN-hVibq4f068yrZOm2-0" vertex="1">
          <mxGeometry x="620" y="1030" width="330" height="190" as="geometry" />
        </mxCell>
        <mxCell id="_Ghy4deFd8bVYPHdU4sL-16" value="" style="endArrow=classic;html=1;fontStyle=1" parent="5MN-hVibq4f068yrZOm2-0" edge="1">
          <mxGeometry width="50" height="50" relative="1" as="geometry">
            <mxPoint x="1041.8199999999997" y="1010" as="sourcePoint" />
            <mxPoint x="1041.4099999999999" y="1080" as="targetPoint" />
          </mxGeometry>
        </mxCell>
        <mxCell id="_Ghy4deFd8bVYPHdU4sL-20" value="" style="edgeStyle=elbowEdgeStyle;elbow=horizontal;endArrow=classic;html=1;fontStyle=1" parent="5MN-hVibq4f068yrZOm2-0" edge="1">
          <mxGeometry width="50" height="50" relative="1" as="geometry">
            <mxPoint x="1137.5900000000001" y="1140" as="sourcePoint" />
            <mxPoint x="1160" y="1000" as="targetPoint" />
            <Array as="points">
              <mxPoint x="1190" y="1070" />
            </Array>
          </mxGeometry>
        </mxCell>
        <mxCell id="_Ghy4deFd8bVYPHdU4sL-21" value="&lt;span style=&quot;font-size: 18px&quot;&gt;업로드 데이터 불완전&lt;/span&gt;" style="text;html=1;strokeColor=none;fillColor=none;align=center;verticalAlign=middle;whiteSpace=wrap;rounded=0;fontStyle=1" parent="5MN-hVibq4f068yrZOm2-0" vertex="1">
          <mxGeometry x="230" y="1090" width="200" height="40" as="geometry" />
        </mxCell>
        <mxCell id="_Ghy4deFd8bVYPHdU4sL-22" value="" style="endArrow=classic;html=1;fontStyle=1;entryX=0.5;entryY=0.02;entryDx=0;entryDy=0;entryPerimeter=0;" parent="5MN-hVibq4f068yrZOm2-0" target="_Ghy4deFd8bVYPHdU4sL-34" edge="1">
          <mxGeometry width="50" height="50" relative="1" as="geometry">
            <mxPoint x="509.40999999999985" y="1189.9999999999998" as="sourcePoint" />
            <mxPoint x="508" y="1400" as="targetPoint" />
          </mxGeometry>
        </mxCell>
        <mxCell id="_Ghy4deFd8bVYPHdU4sL-23" value="" style="endArrow=classic;html=1;fontStyle=1" parent="5MN-hVibq4f068yrZOm2-0" edge="1">
          <mxGeometry width="50" height="50" relative="1" as="geometry">
            <mxPoint x="1039.8199999999997" y="1194.9" as="sourcePoint" />
            <mxPoint x="1039" y="1390" as="targetPoint" />
          </mxGeometry>
        </mxCell>
        <mxCell id="_Ghy4deFd8bVYPHdU4sL-25" value="&lt;span style=&quot;font-size: 18px&quot;&gt;Yes&lt;/span&gt;" style="text;html=1;strokeColor=none;fillColor=none;align=center;verticalAlign=middle;whiteSpace=wrap;rounded=0;fontStyle=1" parent="5MN-hVibq4f068yrZOm2-0" vertex="1">
          <mxGeometry x="1017.5900000000001" y="1610" width="120" height="20" as="geometry" />
        </mxCell>
        <mxCell id="_Ghy4deFd8bVYPHdU4sL-34" value="&lt;font style=&quot;font-size: 18px&quot;&gt;애플 뮤직 스타일 가이드&lt;br&gt;를 완벽히&amp;nbsp;&lt;br&gt;준수하였는가?&lt;br&gt;&lt;/font&gt;" style="html=1;whiteSpace=wrap;aspect=fixed;shape=isoRectangle;fontStyle=1" parent="5MN-hVibq4f068yrZOm2-0" vertex="1">
          <mxGeometry x="355.84000000000015" y="1390" width="308.33" height="185" as="geometry" />
        </mxCell>
        <mxCell id="_Ghy4deFd8bVYPHdU4sL-35" value="" style="edgeStyle=segmentEdgeStyle;endArrow=classic;html=1;fontStyle=1" parent="5MN-hVibq4f068yrZOm2-0" edge="1">
          <mxGeometry width="50" height="50" relative="1" as="geometry">
            <mxPoint x="664.1700000000001" y="1480" as="sourcePoint" />
            <mxPoint x="804.1700000000001" y="1630" as="targetPoint" />
            <Array as="points">
              <mxPoint x="804.1700000000001" y="1480" />
              <mxPoint x="804.1700000000001" y="1610" />
            </Array>
          </mxGeometry>
        </mxCell>
        <mxCell id="_Ghy4deFd8bVYPHdU4sL-36" value="" style="edgeStyle=segmentEdgeStyle;endArrow=classic;html=1;fontStyle=1" parent="5MN-hVibq4f068yrZOm2-0" edge="1">
          <mxGeometry width="50" height="50" relative="1" as="geometry">
            <mxPoint x="355.84000000000015" y="1480" as="sourcePoint" />
            <mxPoint x="204.17000000000007" y="1630" as="targetPoint" />
            <Array as="points">
              <mxPoint x="204.17000000000007" y="1480" />
              <mxPoint x="204.17000000000007" y="1610" />
            </Array>
          </mxGeometry>
        </mxCell>
        <mxCell id="_Ghy4deFd8bVYPHdU4sL-37" value="&lt;span style=&quot;font-size: 18px&quot;&gt;No&lt;/span&gt;" style="text;html=1;strokeColor=none;fillColor=none;align=center;verticalAlign=middle;whiteSpace=wrap;rounded=0;fontStyle=1" parent="5MN-hVibq4f068yrZOm2-0" vertex="1">
          <mxGeometry x="235.83999999999992" y="1440" width="120" height="20" as="geometry" />
        </mxCell>
        <mxCell id="_Ghy4deFd8bVYPHdU4sL-38" value="&lt;span style=&quot;font-size: 18px&quot;&gt;No&lt;/span&gt;" style="text;html=1;strokeColor=none;fillColor=none;align=center;verticalAlign=middle;whiteSpace=wrap;rounded=0;fontStyle=1" parent="5MN-hVibq4f068yrZOm2-0" vertex="1">
          <mxGeometry x="250" y="840" width="120" height="20" as="geometry" />
        </mxCell>
        <mxCell id="_Ghy4deFd8bVYPHdU4sL-40" value="&lt;span style=&quot;font-size: 18px&quot;&gt;애플 뮤직 스타일&lt;br&gt;가이드에 따른&lt;br&gt;데이터 처리&lt;br&gt;&lt;/span&gt;" style="rounded=0;whiteSpace=wrap;html=1;fontStyle=1" parent="5MN-hVibq4f068yrZOm2-0" vertex="1">
          <mxGeometry x="90" y="1630" width="230" height="80" as="geometry" />
        </mxCell>
        <mxCell id="_Ghy4deFd8bVYPHdU4sL-41" value="&lt;span style=&quot;font-size: 18px&quot;&gt;검수진행&lt;/span&gt;" style="rounded=0;whiteSpace=wrap;html=1;fontStyle=1" parent="5MN-hVibq4f068yrZOm2-0" vertex="1">
          <mxGeometry x="445" y="1100" width="130" height="90" as="geometry" />
        </mxCell>
        <mxCell id="_Ghy4deFd8bVYPHdU4sL-42" value="&lt;span style=&quot;font-size: 18px&quot;&gt;검수 완료 주의&lt;br&gt;comment 추가&lt;br&gt;&lt;/span&gt;" style="rounded=0;whiteSpace=wrap;html=1;fontStyle=1" parent="5MN-hVibq4f068yrZOm2-0" vertex="1">
          <mxGeometry x="117.5" y="1800" width="175" height="60" as="geometry" />
        </mxCell>
        <mxCell id="_Ghy4deFd8bVYPHdU4sL-43" value="" style="endArrow=classic;html=1;fontStyle=1" parent="5MN-hVibq4f068yrZOm2-0" edge="1">
          <mxGeometry width="50" height="50" relative="1" as="geometry">
            <mxPoint x="204.41000000000008" y="1710" as="sourcePoint" />
            <mxPoint x="204.41000000000008" y="1800" as="targetPoint" />
          </mxGeometry>
        </mxCell>
        <mxCell id="_Ghy4deFd8bVYPHdU4sL-45" value="" style="edgeStyle=segmentEdgeStyle;endArrow=classic;html=1;fontStyle=1" parent="5MN-hVibq4f068yrZOm2-0" target="_Ghy4deFd8bVYPHdU4sL-47" edge="1">
          <mxGeometry width="50" height="50" relative="1" as="geometry">
            <mxPoint x="210" y="1860" as="sourcePoint" />
            <mxPoint x="470" y="1950" as="targetPoint" />
            <Array as="points">
              <mxPoint x="210" y="1950" />
              <mxPoint x="260" y="1950" />
            </Array>
          </mxGeometry>
        </mxCell>
        <mxCell id="_Ghy4deFd8bVYPHdU4sL-46" value="" style="edgeStyle=segmentEdgeStyle;endArrow=classic;html=1;entryX=1;entryY=0.5;entryDx=0;entryDy=0;fontStyle=1" parent="5MN-hVibq4f068yrZOm2-0" target="_Ghy4deFd8bVYPHdU4sL-47" edge="1">
          <mxGeometry width="50" height="50" relative="1" as="geometry">
            <mxPoint x="800" y="1690" as="sourcePoint" />
            <mxPoint x="530" y="1950" as="targetPoint" />
            <Array as="points">
              <mxPoint x="800" y="1950" />
            </Array>
          </mxGeometry>
        </mxCell>
        <mxCell id="_Ghy4deFd8bVYPHdU4sL-47" value="" style="shape=sumEllipse;perimeter=ellipsePerimeter;whiteSpace=wrap;html=1;backgroundOutline=1;fontStyle=1" parent="5MN-hVibq4f068yrZOm2-0" vertex="1">
          <mxGeometry x="475" y="1910" width="70" height="80" as="geometry" />
        </mxCell>
        <mxCell id="_Ghy4deFd8bVYPHdU4sL-48" value="" style="endArrow=classic;html=1;fontStyle=1" parent="5MN-hVibq4f068yrZOm2-0" edge="1">
          <mxGeometry width="50" height="50" relative="1" as="geometry">
            <mxPoint x="510" y="1990" as="sourcePoint" />
            <mxPoint x="510" y="2100" as="targetPoint" />
          </mxGeometry>
        </mxCell>
        <mxCell id="_Ghy4deFd8bVYPHdU4sL-49" value="&lt;span style=&quot;font-size: 18px&quot;&gt;앨범 전송&lt;/span&gt;" style="rounded=0;whiteSpace=wrap;html=1;fontStyle=1" parent="5MN-hVibq4f068yrZOm2-0" vertex="1">
          <mxGeometry x="1315" y="3400" width="185" height="80" as="geometry" />
        </mxCell>
        <mxCell id="_Ghy4deFd8bVYPHdU4sL-50" value="" style="endArrow=classic;html=1;fontStyle=1" parent="5MN-hVibq4f068yrZOm2-0" edge="1">
          <mxGeometry width="50" height="50" relative="1" as="geometry">
            <mxPoint x="510" y="2160" as="sourcePoint" />
            <mxPoint x="510" y="2270" as="targetPoint" />
          </mxGeometry>
        </mxCell>
        <mxCell id="_Ghy4deFd8bVYPHdU4sL-51" value="&lt;font style=&quot;font-size: 18px&quot;&gt;전송된 데이터 &lt;br&gt;구 CMS 내에서&lt;br&gt;정리&lt;/font&gt;" style="rounded=0;whiteSpace=wrap;html=1;fontStyle=1" parent="5MN-hVibq4f068yrZOm2-0" vertex="1">
          <mxGeometry x="400" y="2270" width="220" height="70" as="geometry" />
        </mxCell>
        <mxCell id="_Ghy4deFd8bVYPHdU4sL-52" value="" style="shape=curlyBracket;whiteSpace=wrap;html=1;rounded=1;fontStyle=1" parent="5MN-hVibq4f068yrZOm2-0" vertex="1">
          <mxGeometry y="2242.5" width="20" height="125" as="geometry" />
        </mxCell>
        <mxCell id="_Ghy4deFd8bVYPHdU4sL-53" value="&lt;span style=&quot;color: rgb(0, 0, 0); font-family: helvetica; font-size: 18px; font-style: normal; letter-spacing: normal; text-align: center; text-indent: 0px; text-transform: none; word-spacing: 0px; background-color: rgb(248, 249, 250); display: inline; float: none;&quot;&gt;▶&amp;nbsp; 구 CMS 내 필수 확인사항&amp;nbsp; ◀&amp;nbsp;&lt;br&gt;1.&amp;nbsp; 아티스트 애플아이디 매칭/생성 후 추가&lt;br&gt;2. 제외국가, 서비스채널 검토&amp;nbsp;&lt;br&gt;&lt;/span&gt;" style="text;whiteSpace=wrap;html=1;fontStyle=1" parent="5MN-hVibq4f068yrZOm2-0" vertex="1">
          <mxGeometry x="40" y="2257.5" width="380" height="100" as="geometry" />
        </mxCell>
        <mxCell id="_Ghy4deFd8bVYPHdU4sL-55" value="" style="endArrow=classic;html=1;entryX=0.5;entryY=0;entryDx=0;entryDy=0;fontStyle=1" parent="5MN-hVibq4f068yrZOm2-0" target="_Ghy4deFd8bVYPHdU4sL-56" edge="1">
          <mxGeometry width="50" height="50" relative="1" as="geometry">
            <mxPoint x="510" y="2340" as="sourcePoint" />
            <mxPoint x="510" y="2400" as="targetPoint" />
          </mxGeometry>
        </mxCell>
        <mxCell id="_Ghy4deFd8bVYPHdU4sL-56" value="&lt;font style=&quot;font-size: 18px&quot;&gt;발매 시간 이후 국내&lt;br&gt;유통사와 앨범 비교 / 대조&lt;br&gt;및 애플 뮤직 스타일가이드&lt;br&gt;최종확인&lt;br&gt;&lt;/font&gt;" style="rounded=0;whiteSpace=wrap;html=1;fontStyle=1" parent="5MN-hVibq4f068yrZOm2-0" vertex="1">
          <mxGeometry x="390.01" y="2420" width="240" height="130" as="geometry" />
        </mxCell>
        <mxCell id="_Ghy4deFd8bVYPHdU4sL-57" value="" style="shape=curlyBracket;whiteSpace=wrap;html=1;rounded=1;fontStyle=1" parent="5MN-hVibq4f068yrZOm2-0" vertex="1">
          <mxGeometry y="2450" width="20" height="120" as="geometry" />
        </mxCell>
        <mxCell id="_Ghy4deFd8bVYPHdU4sL-58" value="&lt;span style=&quot;color: rgb(0, 0, 0); font-family: helvetica; font-size: 18px; font-style: normal; letter-spacing: normal; text-align: center; text-indent: 0px; text-transform: none; word-spacing: 0px; background-color: rgb(248, 249, 250); display: inline; float: none;&quot;&gt;▶&amp;nbsp; 비교 및 대조 확인사항&amp;nbsp; ◀&amp;nbsp;&lt;br&gt;1.&amp;nbsp; 피쳐링, 메인 아티스트, with&lt;br&gt;2. 앨범 커버, 트랙명,19금&amp;nbsp;&lt;br&gt;&lt;/span&gt;" style="text;whiteSpace=wrap;html=1;fontStyle=1" parent="5MN-hVibq4f068yrZOm2-0" vertex="1">
          <mxGeometry x="40" y="2470" width="380" height="100" as="geometry" />
        </mxCell>
        <mxCell id="_Ghy4deFd8bVYPHdU4sL-59" value="" style="endArrow=classic;html=1;exitX=0.5;exitY=1;exitDx=0;exitDy=0;fontStyle=1" parent="5MN-hVibq4f068yrZOm2-0" source="_Ghy4deFd8bVYPHdU4sL-56" edge="1">
          <mxGeometry width="50" height="50" relative="1" as="geometry">
            <mxPoint x="509.28999999999996" y="2570" as="sourcePoint" />
            <mxPoint x="509" y="2650" as="targetPoint" />
          </mxGeometry>
        </mxCell>
        <mxCell id="_Ghy4deFd8bVYPHdU4sL-60" value="&lt;font style=&quot;font-size: 18px&quot;&gt;구 CMS 전송&lt;/font&gt;" style="rounded=0;whiteSpace=wrap;html=1;fontStyle=1" parent="5MN-hVibq4f068yrZOm2-0" vertex="1">
          <mxGeometry x="432.5" y="2100" width="185" height="70" as="geometry" />
        </mxCell>
        <mxCell id="_Ghy4deFd8bVYPHdU4sL-61" value="" style="endArrow=classic;html=1;fontStyle=1;entryX=0.506;entryY=0.044;entryDx=0;entryDy=0;entryPerimeter=0;" parent="5MN-hVibq4f068yrZOm2-0" target="_Ghy4deFd8bVYPHdU4sL-62" edge="1">
          <mxGeometry width="50" height="50" relative="1" as="geometry">
            <mxPoint x="509.5799999999999" y="2710" as="sourcePoint" />
            <mxPoint x="507" y="2797" as="targetPoint" />
          </mxGeometry>
        </mxCell>
        <mxCell id="_Ghy4deFd8bVYPHdU4sL-62" value="&lt;font style=&quot;font-size: 18px&quot;&gt;유효성 검사를 &lt;br&gt;통과 하였는가?&lt;/font&gt;" style="html=1;whiteSpace=wrap;aspect=fixed;shape=isoRectangle;fontStyle=1" parent="5MN-hVibq4f068yrZOm2-0" vertex="1">
          <mxGeometry x="376.6700000000001" y="2790" width="266.67" height="160" as="geometry" />
        </mxCell>
        <mxCell id="_Ghy4deFd8bVYPHdU4sL-63" value="" style="edgeStyle=elbowEdgeStyle;elbow=horizontal;endArrow=classic;html=1;entryX=1;entryY=0.5;entryDx=0;entryDy=0;fontStyle=1" parent="5MN-hVibq4f068yrZOm2-0" target="_Ghy4deFd8bVYPHdU4sL-56" edge="1">
          <mxGeometry width="50" height="50" relative="1" as="geometry">
            <mxPoint x="643.3399999999999" y="2870" as="sourcePoint" />
            <mxPoint x="780" y="2480" as="targetPoint" />
            <Array as="points">
              <mxPoint x="720" y="2670" />
            </Array>
          </mxGeometry>
        </mxCell>
        <mxCell id="_Ghy4deFd8bVYPHdU4sL-64" value="&lt;span style=&quot;font-size: 18px&quot;&gt;No&lt;/span&gt;" style="text;html=1;strokeColor=none;fillColor=none;align=center;verticalAlign=middle;whiteSpace=wrap;rounded=0;fontStyle=1" parent="5MN-hVibq4f068yrZOm2-0" vertex="1">
          <mxGeometry x="730" y="2670" width="80" height="20" as="geometry" />
        </mxCell>
        <mxCell id="_Ghy4deFd8bVYPHdU4sL-72" value="&lt;font style=&quot;font-size: 18px&quot;&gt;정상적으로 해외 플랫폼에&lt;br&gt;Ingestion이 완료되었는가?&lt;/font&gt;" style="rhombus;whiteSpace=wrap;html=1;fontStyle=1" parent="5MN-hVibq4f068yrZOm2-0" vertex="1">
          <mxGeometry x="1260.0100000000002" y="3610" width="280" height="190" as="geometry" />
        </mxCell>
        <mxCell id="_Ghy4deFd8bVYPHdU4sL-73" value="" style="endArrow=classic;html=1;fontStyle=1;" parent="5MN-hVibq4f068yrZOm2-0" edge="1">
          <mxGeometry width="50" height="50" relative="1" as="geometry">
            <mxPoint x="1400" y="3480" as="sourcePoint" />
            <mxPoint x="1400" y="3608.33" as="targetPoint" />
          </mxGeometry>
        </mxCell>
        <mxCell id="_Ghy4deFd8bVYPHdU4sL-74" value="&lt;span style=&quot;font-size: 18px&quot;&gt;No&lt;/span&gt;" style="text;html=1;strokeColor=none;fillColor=none;align=center;verticalAlign=middle;whiteSpace=wrap;rounded=0;fontStyle=1" parent="5MN-hVibq4f068yrZOm2-0" vertex="1">
          <mxGeometry x="720" y="3670" width="80" height="20" as="geometry" />
        </mxCell>
        <mxCell id="_Ghy4deFd8bVYPHdU4sL-76" value="&lt;span style=&quot;font-size: 18px&quot;&gt;개발팀&amp;nbsp; 및 플랫폼 문의&lt;br&gt;후&amp;nbsp; 오류해결&lt;br&gt;&lt;/span&gt;" style="rounded=0;whiteSpace=wrap;html=1;fontStyle=1" parent="5MN-hVibq4f068yrZOm2-0" vertex="1">
          <mxGeometry x="146.26" y="3650" width="243.75" height="85" as="geometry" />
        </mxCell>
        <mxCell id="_Ghy4deFd8bVYPHdU4sL-79" value="&lt;span style=&quot;font-size: 18px&quot;&gt;Yes&lt;/span&gt;" style="text;html=1;strokeColor=none;fillColor=none;align=center;verticalAlign=middle;whiteSpace=wrap;rounded=0;fontStyle=1" parent="5MN-hVibq4f068yrZOm2-0" vertex="1">
          <mxGeometry x="1405" y="3910" width="80" height="20" as="geometry" />
        </mxCell>
        <mxCell id="_Ghy4deFd8bVYPHdU4sL-80" value="&lt;font style=&quot;font-size: 18px&quot;&gt;해당 유통사는&lt;br&gt;메타 추출 가능한&lt;br&gt;유통사인가?&lt;/font&gt;" style="html=1;whiteSpace=wrap;aspect=fixed;shape=isoRectangle;fontStyle=1" parent="5MN-hVibq4f068yrZOm2-0" vertex="1">
          <mxGeometry x="915" y="1390" width="250" height="150" as="geometry" />
        </mxCell>
        <mxCell id="_Ghy4deFd8bVYPHdU4sL-81" value="" style="endArrow=classic;html=1;fontStyle=1;entryX=0.459;entryY=0.033;entryDx=0;entryDy=0;entryPerimeter=0;" parent="5MN-hVibq4f068yrZOm2-0" target="_Ghy4deFd8bVYPHdU4sL-91" edge="1">
          <mxGeometry width="50" height="50" relative="1" as="geometry">
            <mxPoint x="1042.1100000000001" y="1540" as="sourcePoint" />
            <mxPoint x="1041" y="1650" as="targetPoint" />
          </mxGeometry>
        </mxCell>
        <mxCell id="_Ghy4deFd8bVYPHdU4sL-82" value="&lt;span style=&quot;font-size: 18px&quot;&gt;Yes&lt;/span&gt;" style="text;html=1;strokeColor=none;fillColor=none;align=center;verticalAlign=middle;whiteSpace=wrap;rounded=0;fontStyle=1" parent="5MN-hVibq4f068yrZOm2-0" vertex="1">
          <mxGeometry x="1010.0000000000002" y="1280" width="120" height="20" as="geometry" />
        </mxCell>
        <mxCell id="_Ghy4deFd8bVYPHdU4sL-84" value="" style="endArrow=classic;html=1;fontStyle=1" parent="5MN-hVibq4f068yrZOm2-0" edge="1">
          <mxGeometry width="50" height="50" relative="1" as="geometry">
            <mxPoint x="1166.1100000000001" y="1465" as="sourcePoint" />
            <mxPoint x="1280" y="1465" as="targetPoint" />
          </mxGeometry>
        </mxCell>
        <mxCell id="_Ghy4deFd8bVYPHdU4sL-85" value="&lt;span style=&quot;font-size: 18px&quot;&gt;No&lt;/span&gt;" style="text;html=1;strokeColor=none;fillColor=none;align=center;verticalAlign=middle;whiteSpace=wrap;rounded=0;fontStyle=1" parent="5MN-hVibq4f068yrZOm2-0" vertex="1">
          <mxGeometry x="1150" y="1425" width="120" height="20" as="geometry" />
        </mxCell>
        <mxCell id="_Ghy4deFd8bVYPHdU4sL-87" value="&lt;span style=&quot;font-size: 18px&quot;&gt;Common Meta &lt;br&gt;엑셀 형식에 맞추어&lt;br&gt;엑셀 정리&lt;br&gt;&lt;/span&gt;" style="rounded=0;whiteSpace=wrap;html=1;fontStyle=1" parent="5MN-hVibq4f068yrZOm2-0" vertex="1">
          <mxGeometry x="1280" y="1430" width="220" height="65" as="geometry" />
        </mxCell>
        <mxCell id="_Ghy4deFd8bVYPHdU4sL-91" value="&lt;span style=&quot;font-size: 18px&quot;&gt;트랙리스트 취함&amp;nbsp;&lt;br&gt;및 압축&lt;br&gt;&lt;/span&gt;" style="rounded=0;whiteSpace=wrap;html=1;fontStyle=1" parent="5MN-hVibq4f068yrZOm2-0" vertex="1">
          <mxGeometry x="923.5" y="1690" width="257.58" height="60" as="geometry" />
        </mxCell>
        <mxCell id="_Ghy4deFd8bVYPHdU4sL-94" value="" style="endArrow=classic;html=1;fontStyle=1" parent="5MN-hVibq4f068yrZOm2-0" edge="1">
          <mxGeometry width="50" height="50" relative="1" as="geometry">
            <mxPoint x="1039" y="1750" as="sourcePoint" />
            <mxPoint x="1039.29" y="1930" as="targetPoint" />
          </mxGeometry>
        </mxCell>
        <mxCell id="_Ghy4deFd8bVYPHdU4sL-95" value="&lt;span style=&quot;font-size: 18px&quot;&gt;메타추출&lt;/span&gt;" style="rounded=0;whiteSpace=wrap;html=1;fontStyle=1" parent="5MN-hVibq4f068yrZOm2-0" vertex="1">
          <mxGeometry x="950" y="1930" width="180" height="60" as="geometry" />
        </mxCell>
        <mxCell id="_Ghy4deFd8bVYPHdU4sL-96" value="" style="endArrow=classic;html=1;entryX=0;entryY=0.5;entryDx=0;entryDy=0;fontStyle=1" parent="5MN-hVibq4f068yrZOm2-0" target="_Ghy4deFd8bVYPHdU4sL-97" edge="1">
          <mxGeometry width="50" height="50" relative="1" as="geometry">
            <mxPoint x="1130.0000000000005" y="1959.29" as="sourcePoint" />
            <mxPoint x="1243.8899999999999" y="1959.29" as="targetPoint" />
          </mxGeometry>
        </mxCell>
        <mxCell id="_Ghy4deFd8bVYPHdU4sL-97" value="&lt;span style=&quot;font-size: 18px&quot;&gt;정제된 데이터&lt;br&gt;&lt;/span&gt;" style="rounded=0;whiteSpace=wrap;html=1;fontStyle=1" parent="5MN-hVibq4f068yrZOm2-0" vertex="1">
          <mxGeometry x="1280" y="1930" width="210" height="60" as="geometry" />
        </mxCell>
        <mxCell id="_Ghy4deFd8bVYPHdU4sL-98" value="" style="endArrow=classic;html=1;fontStyle=1" parent="5MN-hVibq4f068yrZOm2-0" edge="1">
          <mxGeometry width="50" height="50" relative="1" as="geometry">
            <mxPoint x="1400" y="1495" as="sourcePoint" />
            <mxPoint x="1400" y="1930" as="targetPoint" />
          </mxGeometry>
        </mxCell>
        <mxCell id="_Ghy4deFd8bVYPHdU4sL-101" value="&lt;font style=&quot;font-size: 18px&quot;&gt;콘샐러드에서 정해놓은&amp;nbsp;&lt;br&gt;meta&amp;nbsp; 형식에&amp;nbsp;&lt;br&gt;맞추어 필수 값들 기재&lt;br&gt;&lt;/font&gt;" style="text;html=1;strokeColor=none;fillColor=none;align=center;verticalAlign=middle;whiteSpace=wrap;rounded=0;fontStyle=1" parent="5MN-hVibq4f068yrZOm2-0" vertex="1">
          <mxGeometry x="1420" y="1670" width="220" height="100" as="geometry" />
        </mxCell>
        <mxCell id="_Ghy4deFd8bVYPHdU4sL-102" value="&lt;span style=&quot;font-size: 18px&quot;&gt;No&lt;/span&gt;" style="text;html=1;strokeColor=none;fillColor=none;align=center;verticalAlign=middle;whiteSpace=wrap;rounded=0;fontStyle=1" parent="5MN-hVibq4f068yrZOm2-0" vertex="1">
          <mxGeometry x="1210" y="1080" width="120" height="20" as="geometry" />
        </mxCell>
        <mxCell id="_Ghy4deFd8bVYPHdU4sL-103" value="" style="endArrow=classic;html=1;fontStyle=1" parent="5MN-hVibq4f068yrZOm2-0" edge="1">
          <mxGeometry width="50" height="50" relative="1" as="geometry">
            <mxPoint x="1400" y="1990" as="sourcePoint" />
            <mxPoint x="1400" y="2070" as="targetPoint" />
          </mxGeometry>
        </mxCell>
        <mxCell id="_Ghy4deFd8bVYPHdU4sL-104" value="&lt;font style=&quot;font-size: 18px&quot;&gt;애플 뮤직 스타일 가이드&lt;br&gt;에 맞추어서 &lt;br&gt;데이터 정리&lt;/font&gt;" style="rounded=0;whiteSpace=wrap;html=1;fontStyle=1" parent="5MN-hVibq4f068yrZOm2-0" vertex="1">
          <mxGeometry x="1290" y="2070" width="220" height="100" as="geometry" />
        </mxCell>
        <mxCell id="_Ghy4deFd8bVYPHdU4sL-105" value="" style="endArrow=classic;html=1;fontStyle=1" parent="5MN-hVibq4f068yrZOm2-0" edge="1">
          <mxGeometry width="50" height="50" relative="1" as="geometry">
            <mxPoint x="1399.29" y="2170" as="sourcePoint" />
            <mxPoint x="1399" y="2260" as="targetPoint" />
          </mxGeometry>
        </mxCell>
        <mxCell id="_Ghy4deFd8bVYPHdU4sL-106" value="&lt;span style=&quot;font-size: 18px&quot;&gt;파일내에&amp;nbsp;&lt;br&gt;Track-&amp;gt; 트랙파일&lt;br&gt;Image -&amp;gt; 커버이미지&amp;nbsp;&lt;br&gt;Lyrics -&amp;gt; 가사파일 삽입&lt;br&gt;&lt;/span&gt;" style="rounded=0;whiteSpace=wrap;html=1;fontStyle=1" parent="5MN-hVibq4f068yrZOm2-0" vertex="1">
          <mxGeometry x="1270" y="2260" width="285" height="110" as="geometry" />
        </mxCell>
        <mxCell id="_Ghy4deFd8bVYPHdU4sL-107" value="" style="endArrow=classic;html=1;fontStyle=1" parent="5MN-hVibq4f068yrZOm2-0" edge="1">
          <mxGeometry width="50" height="50" relative="1" as="geometry">
            <mxPoint x="1399.29" y="2370" as="sourcePoint" />
            <mxPoint x="1399" y="2460" as="targetPoint" />
          </mxGeometry>
        </mxCell>
        <mxCell id="_Ghy4deFd8bVYPHdU4sL-109" value="&lt;font style=&quot;font-size: 18px&quot;&gt;DarkNamer 사용해 파일명 한번에 변경&lt;br&gt;앨범 커버 -&amp;gt; 각앨범 UPC&lt;br&gt;가사,트랙 -&amp;gt; 각앨범 ISRC&lt;br&gt;&lt;/font&gt;" style="rounded=0;whiteSpace=wrap;html=1;fontStyle=1" parent="5MN-hVibq4f068yrZOm2-0" vertex="1">
          <mxGeometry x="1225" y="2460" width="365" height="100" as="geometry" />
        </mxCell>
        <mxCell id="_Ghy4deFd8bVYPHdU4sL-110" value="" style="endArrow=classic;html=1;fontStyle=1" parent="5MN-hVibq4f068yrZOm2-0" edge="1">
          <mxGeometry width="50" height="50" relative="1" as="geometry">
            <mxPoint x="1399.58" y="2560" as="sourcePoint" />
            <mxPoint x="1399.29" y="2660" as="targetPoint" />
          </mxGeometry>
        </mxCell>
        <mxCell id="_Ghy4deFd8bVYPHdU4sL-111" value="&lt;font style=&quot;font-size: 18px&quot;&gt;FileZilla 를 이용하여 FTP 전송&lt;/font&gt;" style="rounded=0;whiteSpace=wrap;html=1;fontStyle=1" parent="5MN-hVibq4f068yrZOm2-0" vertex="1">
          <mxGeometry x="1250" y="2660" width="300" height="60" as="geometry" />
        </mxCell>
        <mxCell id="_Ghy4deFd8bVYPHdU4sL-112" value="" style="endArrow=classic;html=1;fontStyle=1" parent="5MN-hVibq4f068yrZOm2-0" edge="1">
          <mxGeometry width="50" height="50" relative="1" as="geometry">
            <mxPoint x="1399.87" y="2720" as="sourcePoint" />
            <mxPoint x="1399.29" y="2800" as="targetPoint" />
          </mxGeometry>
        </mxCell>
        <mxCell id="_Ghy4deFd8bVYPHdU4sL-114" value="&lt;font style=&quot;font-size: 18px&quot;&gt;유효성 검사를 &lt;br&gt;통과 하였는가?&lt;/font&gt;" style="html=1;whiteSpace=wrap;aspect=fixed;shape=isoRectangle;fontStyle=1" parent="5MN-hVibq4f068yrZOm2-0" vertex="1">
          <mxGeometry x="1266.67" y="2800" width="266.67" height="160" as="geometry" />
        </mxCell>
        <mxCell id="_Ghy4deFd8bVYPHdU4sL-115" value="" style="edgeStyle=elbowEdgeStyle;elbow=horizontal;endArrow=classic;html=1;entryX=0;entryY=0.5;entryDx=0;entryDy=0;fontStyle=1" parent="5MN-hVibq4f068yrZOm2-0" target="_Ghy4deFd8bVYPHdU4sL-104" edge="1">
          <mxGeometry width="50" height="50" relative="1" as="geometry">
            <mxPoint x="1270" y="2880" as="sourcePoint" />
            <mxPoint x="1050" y="2112.8571428571427" as="targetPoint" />
            <Array as="points">
              <mxPoint x="1130" y="2672.5" />
            </Array>
          </mxGeometry>
        </mxCell>
        <mxCell id="_Ghy4deFd8bVYPHdU4sL-116" value="&lt;span style=&quot;font-size: 18px&quot;&gt;No&lt;/span&gt;" style="text;html=1;strokeColor=none;fillColor=none;align=center;verticalAlign=middle;whiteSpace=wrap;rounded=0;fontStyle=1" parent="5MN-hVibq4f068yrZOm2-0" vertex="1">
          <mxGeometry x="1037.59" y="2460" width="80" height="20" as="geometry" />
        </mxCell>
        <mxCell id="_Ghy4deFd8bVYPHdU4sL-118" value="&lt;span style=&quot;font-size: 18px&quot;&gt;앨범등록 전송&lt;/span&gt;" style="rounded=0;whiteSpace=wrap;html=1;fontStyle=1" parent="5MN-hVibq4f068yrZOm2-0" vertex="1">
          <mxGeometry x="427.5" y="2650" width="185" height="70" as="geometry" />
        </mxCell>
        <mxCell id="_Ghy4deFd8bVYPHdU4sL-123" value="&lt;font size=&quot;3&quot;&gt;Bugs ID (앨범, 트랙) 서칭&lt;/font&gt;" style="rounded=0;whiteSpace=wrap;html=1;fontStyle=1" parent="5MN-hVibq4f068yrZOm2-0" vertex="1">
          <mxGeometry x="1520" y="270" width="230" height="70" as="geometry" />
        </mxCell>
        <mxCell id="_Ghy4deFd8bVYPHdU4sL-126" value="&lt;span style=&quot;font-size: 18px&quot;&gt;아티스트 Apple ID 서칭&lt;/span&gt;" style="rounded=0;whiteSpace=wrap;html=1;fontStyle=1" parent="5MN-hVibq4f068yrZOm2-0" vertex="1">
          <mxGeometry x="1520" y="430" width="230" height="70" as="geometry" />
        </mxCell>
        <mxCell id="_Ghy4deFd8bVYPHdU4sL-131" value="" style="endArrow=classic;html=1;fontStyle=1" parent="5MN-hVibq4f068yrZOm2-0" edge="1">
          <mxGeometry width="50" height="50" relative="1" as="geometry">
            <mxPoint x="1640" y="340" as="sourcePoint" />
            <mxPoint x="1640" y="430" as="targetPoint" />
          </mxGeometry>
        </mxCell>
        <mxCell id="_Ghy4deFd8bVYPHdU4sL-132" value="" style="endArrow=classic;html=1;fontStyle=1" parent="5MN-hVibq4f068yrZOm2-0" edge="1">
          <mxGeometry width="50" height="50" relative="1" as="geometry">
            <mxPoint x="1640" y="500" as="sourcePoint" />
            <mxPoint x="1640" y="580" as="targetPoint" />
          </mxGeometry>
        </mxCell>
        <mxCell id="_Ghy4deFd8bVYPHdU4sL-133" value="&lt;span style=&quot;font-size: 18px&quot;&gt;벅스 크롤링&amp;nbsp;&lt;br&gt;(앨범명, 트랙명, 아티스트,&lt;br&gt;자켓사진,장르,가사)&lt;br&gt;&lt;/span&gt;" style="rounded=0;whiteSpace=wrap;html=1;fontStyle=1" parent="5MN-hVibq4f068yrZOm2-0" vertex="1">
          <mxGeometry x="1520" y="580" width="230" height="100" as="geometry" />
        </mxCell>
        <mxCell id="_Ghy4deFd8bVYPHdU4sL-134" value="&lt;font style=&quot;font-size: 18px&quot;&gt;유통사 물리파일 수급&lt;/font&gt;" style="rounded=0;whiteSpace=wrap;html=1;fontStyle=1" parent="5MN-hVibq4f068yrZOm2-0" vertex="1">
          <mxGeometry x="1520" y="135" width="230" height="70" as="geometry" />
        </mxCell>
        <mxCell id="_Ghy4deFd8bVYPHdU4sL-135" value="" style="endArrow=classic;html=1;entryX=0;entryY=0.5;entryDx=0;entryDy=0;fontStyle=1" parent="5MN-hVibq4f068yrZOm2-0" target="_Ghy4deFd8bVYPHdU4sL-134" edge="1">
          <mxGeometry width="50" height="50" relative="1" as="geometry">
            <mxPoint x="1405" y="170" as="sourcePoint" />
            <mxPoint x="1550" y="170" as="targetPoint" />
          </mxGeometry>
        </mxCell>
        <mxCell id="_Ghy4deFd8bVYPHdU4sL-137" value="" style="endArrow=classic;html=1;fontStyle=1" parent="5MN-hVibq4f068yrZOm2-0" edge="1">
          <mxGeometry width="50" height="50" relative="1" as="geometry">
            <mxPoint x="1640" y="205" as="sourcePoint" />
            <mxPoint x="1640" y="270" as="targetPoint" />
          </mxGeometry>
        </mxCell>
        <mxCell id="_Ghy4deFd8bVYPHdU4sL-138" value="" style="endArrow=classic;html=1;fontStyle=1" parent="5MN-hVibq4f068yrZOm2-0" edge="1">
          <mxGeometry width="50" height="50" relative="1" as="geometry">
            <mxPoint x="1639.9999999999995" y="679.9999999999998" as="sourcePoint" />
            <mxPoint x="1639.9999999999995" y="759.9999999999998" as="targetPoint" />
          </mxGeometry>
        </mxCell>
        <mxCell id="_Ghy4deFd8bVYPHdU4sL-139" value="&lt;span style=&quot;font-size: 18px&quot;&gt;벅스 크롤링 데이터와&amp;nbsp;&lt;br&gt;트랙리스트 검수를 통해&amp;nbsp;&lt;br&gt;등록제외 앨범 분류&amp;nbsp;&lt;br&gt;&lt;/span&gt;" style="rounded=0;whiteSpace=wrap;html=1;fontStyle=1" parent="5MN-hVibq4f068yrZOm2-0" vertex="1">
          <mxGeometry x="1520" y="760" width="230" height="100" as="geometry" />
        </mxCell>
        <mxCell id="_Ghy4deFd8bVYPHdU4sL-140" value="" style="endArrow=classic;html=1;fontStyle=1" parent="5MN-hVibq4f068yrZOm2-0" edge="1">
          <mxGeometry width="50" height="50" relative="1" as="geometry">
            <mxPoint x="1639.9999999999995" y="859.9999999999998" as="sourcePoint" />
            <mxPoint x="1639.9999999999995" y="939.9999999999998" as="targetPoint" />
          </mxGeometry>
        </mxCell>
        <mxCell id="_Ghy4deFd8bVYPHdU4sL-141" value="&lt;span style=&quot;font-size: 18px&quot;&gt;Common Meta&amp;nbsp;&lt;br&gt;형식에 맞추어&amp;nbsp;&lt;br&gt;엑셀 정리&lt;br&gt;&lt;br&gt;&lt;/span&gt;" style="rounded=0;whiteSpace=wrap;html=1;fontStyle=1" parent="5MN-hVibq4f068yrZOm2-0" vertex="1">
          <mxGeometry x="1531.8799999999999" y="940" width="216.66" height="110" as="geometry" />
        </mxCell>
        <mxCell id="_Ghy4deFd8bVYPHdU4sL-143" value="" style="edgeStyle=elbowEdgeStyle;elbow=vertical;endArrow=classic;html=1;fontStyle=1" parent="5MN-hVibq4f068yrZOm2-0" edge="1">
          <mxGeometry width="50" height="50" relative="1" as="geometry">
            <mxPoint x="510" y="2950" as="sourcePoint" />
            <mxPoint x="1320" y="3220" as="targetPoint" />
            <Array as="points">
              <mxPoint x="900" y="3220" />
            </Array>
          </mxGeometry>
        </mxCell>
        <mxCell id="_Ghy4deFd8bVYPHdU4sL-144" value="" style="endArrow=classic;html=1;fontStyle=1" parent="5MN-hVibq4f068yrZOm2-0" edge="1">
          <mxGeometry width="50" height="50" relative="1" as="geometry">
            <mxPoint x="1400" y="2960" as="sourcePoint" />
            <mxPoint x="1400" y="3160" as="targetPoint" />
          </mxGeometry>
        </mxCell>
        <mxCell id="_Ghy4deFd8bVYPHdU4sL-149" value="" style="endArrow=classic;html=1;fontStyle=1;exitX=0.519;exitY=1;exitDx=0;exitDy=0;exitPerimeter=0;" parent="5MN-hVibq4f068yrZOm2-0" source="d6JHdZH8L2p2i41rlUMP-2" edge="1">
          <mxGeometry width="50" height="50" relative="1" as="geometry">
            <mxPoint x="1402.5" y="3270" as="sourcePoint" />
            <mxPoint x="1403" y="3400" as="targetPoint" />
          </mxGeometry>
        </mxCell>
        <mxCell id="_Ghy4deFd8bVYPHdU4sL-152" value="" style="endArrow=classic;html=1;fontStyle=1;" parent="5MN-hVibq4f068yrZOm2-0" edge="1">
          <mxGeometry width="50" height="50" relative="1" as="geometry">
            <mxPoint x="1263" y="3704.17" as="sourcePoint" />
            <mxPoint x="390" y="3700" as="targetPoint" />
          </mxGeometry>
        </mxCell>
        <mxCell id="_Ghy4deFd8bVYPHdU4sL-156" value="" style="endArrow=classic;html=1;fontStyle=1;" parent="5MN-hVibq4f068yrZOm2-0" edge="1">
          <mxGeometry width="50" height="50" relative="1" as="geometry">
            <mxPoint x="1400" y="3800" as="sourcePoint" />
            <mxPoint x="1400" y="4010" as="targetPoint" />
          </mxGeometry>
        </mxCell>
        <mxCell id="_Ghy4deFd8bVYPHdU4sL-158" value="" style="edgeStyle=segmentEdgeStyle;endArrow=classic;html=1;fontStyle=1" parent="5MN-hVibq4f068yrZOm2-0" edge="1">
          <mxGeometry width="50" height="50" relative="1" as="geometry">
            <mxPoint x="270" y="3650" as="sourcePoint" />
            <mxPoint x="430" y="2690" as="targetPoint" />
            <Array as="points">
              <mxPoint x="270" y="2690" />
            </Array>
          </mxGeometry>
        </mxCell>
        <mxCell id="_Ghy4deFd8bVYPHdU4sL-161" value="" style="edgeStyle=segmentEdgeStyle;endArrow=classic;html=1;exitX=0.5;exitY=1;exitDx=0;exitDy=0;fontStyle=1" parent="5MN-hVibq4f068yrZOm2-0" source="_Ghy4deFd8bVYPHdU4sL-141" edge="1">
          <mxGeometry width="50" height="50" relative="1" as="geometry">
            <mxPoint x="1640" y="1050" as="sourcePoint" />
            <mxPoint x="1490" y="1970" as="targetPoint" />
            <Array as="points">
              <mxPoint x="1642" y="1970" />
              <mxPoint x="1490" y="1970" />
            </Array>
          </mxGeometry>
        </mxCell>
        <mxCell id="_Ghy4deFd8bVYPHdU4sL-163" value="&lt;span style=&quot;font-size: 18px&quot;&gt;Yes&lt;/span&gt;" style="text;html=1;strokeColor=none;fillColor=none;align=center;verticalAlign=middle;whiteSpace=wrap;rounded=0;fontStyle=1" parent="5MN-hVibq4f068yrZOm2-0" vertex="1">
          <mxGeometry x="1117.5900000000001" y="135" width="120" height="20" as="geometry" />
        </mxCell>
        <mxCell id="Vp7n7pT0rYeKjPCkmBh9-0" value="&lt;span style=&quot;font-size: 18px&quot;&gt;▶주요 검수 내용◀&amp;nbsp;&lt;br&gt;1.발매일시&lt;br&gt;2.아티스트명.&lt;br&gt;3.앨범,트랙명&lt;br&gt;&lt;/span&gt;" style="text;html=1;strokeColor=none;fillColor=none;align=center;verticalAlign=middle;whiteSpace=wrap;rounded=0;fontStyle=1" parent="5MN-hVibq4f068yrZOm2-0" vertex="1">
          <mxGeometry x="580" y="895" width="280" height="190" as="geometry" />
        </mxCell>
        <mxCell id="Vp7n7pT0rYeKjPCkmBh9-1" value="" style="shape=curlyBracket;whiteSpace=wrap;html=1;rounded=1;fontStyle=1" parent="5MN-hVibq4f068yrZOm2-0" vertex="1">
          <mxGeometry x="610" y="940" width="20" height="110" as="geometry" />
        </mxCell>
        <mxCell id="skMm_KSLyLUZOy1wStm9-0" value="&lt;span style=&quot;font-size: 18px&quot;&gt;Yes&lt;/span&gt;" style="text;html=1;strokeColor=none;fillColor=none;align=center;verticalAlign=middle;whiteSpace=wrap;rounded=0;fontStyle=1" parent="5MN-hVibq4f068yrZOm2-0" vertex="1">
          <mxGeometry x="860" y="3160" width="80" height="20" as="geometry" />
        </mxCell>
        <mxCell id="skMm_KSLyLUZOy1wStm9-1" value="&lt;span style=&quot;font-size: 18px&quot;&gt;Yes&lt;/span&gt;" style="text;html=1;strokeColor=none;fillColor=none;align=center;verticalAlign=middle;whiteSpace=wrap;rounded=0;fontStyle=1" parent="5MN-hVibq4f068yrZOm2-0" vertex="1">
          <mxGeometry x="1425" y="3040" width="80" height="20" as="geometry" />
        </mxCell>
        <mxCell id="d6JHdZH8L2p2i41rlUMP-0" value="" style="shape=sumEllipse;perimeter=ellipsePerimeter;whiteSpace=wrap;html=1;backgroundOutline=1;fontStyle=1" parent="5MN-hVibq4f068yrZOm2-0" vertex="1">
          <mxGeometry x="480" y="950" width="60" height="65" as="geometry" />
        </mxCell>
        <mxCell id="d6JHdZH8L2p2i41rlUMP-2" value="&lt;span style=&quot;font-size: 18px&quot;&gt;구CMS앨범등록&lt;/span&gt;" style="rounded=0;whiteSpace=wrap;html=1;fontStyle=1" parent="5MN-hVibq4f068yrZOm2-0" vertex="1">
          <mxGeometry x="1320.01" y="3160" width="160" height="100" as="geometry" />
        </mxCell>
        <mxCell id="_Ghy4deFd8bVYPHdU4sL-70" value="&lt;span style=&quot;font-size: 18px&quot;&gt;해외 플랫폼 정상 등록 확인&lt;/span&gt;" style="rounded=0;whiteSpace=wrap;html=1;fontStyle=1" parent="WIyWlLk6GJQsqaUBKTNV-1" vertex="1">
          <mxGeometry x="2218.13" y="4520" width="263.75" height="60" as="geometry" />
        </mxCell>
        <mxCell id="d6JHdZH8L2p2i41rlUMP-18" value="&lt;span style=&quot;font-size: 18px&quot;&gt;음원등록 구 CMS 페이지에&lt;br&gt;서비스 링크 Live&amp;nbsp;&lt;br&gt;확인+ 실서비스 되는가?&lt;br&gt;&lt;/span&gt;" style="rhombus;whiteSpace=wrap;html=1;fontStyle=1" parent="WIyWlLk6GJQsqaUBKTNV-1" vertex="1">
          <mxGeometry x="2200" y="4080" width="300" height="240" as="geometry" />
        </mxCell>
        <mxCell id="d6JHdZH8L2p2i41rlUMP-25" value="" style="endArrow=classic;html=1;fontStyle=1" parent="WIyWlLk6GJQsqaUBKTNV-1" edge="1">
          <mxGeometry width="50" height="50" relative="1" as="geometry">
            <mxPoint x="2349.34" y="4310" as="sourcePoint" />
            <mxPoint x="2349" y="4520" as="targetPoint" />
          </mxGeometry>
        </mxCell>
        <mxCell id="d6JHdZH8L2p2i41rlUMP-26" value="&lt;span style=&quot;font-size: 18px&quot;&gt;Yes&lt;br&gt;(서비스되고 정상적으로 링크 확인)&lt;br&gt;&lt;/span&gt;" style="text;html=1;strokeColor=none;fillColor=none;align=center;verticalAlign=middle;whiteSpace=wrap;rounded=0;fontStyle=1" parent="WIyWlLk6GJQsqaUBKTNV-1" vertex="1">
          <mxGeometry x="2340" y="4390" width="320" height="70" as="geometry" />
        </mxCell>
        <mxCell id="d6JHdZH8L2p2i41rlUMP-31" value="&lt;span style=&quot;font-size: 18px&quot;&gt;No&lt;/span&gt;" style="text;html=1;strokeColor=none;fillColor=none;align=center;verticalAlign=middle;whiteSpace=wrap;rounded=0;fontStyle=1" parent="WIyWlLk6GJQsqaUBKTNV-1" vertex="1">
          <mxGeometry x="1680" y="4220" width="80" height="20" as="geometry" />
        </mxCell>
        <mxCell id="d6JHdZH8L2p2i41rlUMP-24" value="&lt;span style=&quot;color: rgb(0 , 0 , 0) ; font-family: &amp;#34;helvetica&amp;#34; ; font-size: 18px ; font-style: normal ; letter-spacing: normal ; text-align: center ; text-indent: 0px ; text-transform: none ; word-spacing: 0px ; background-color: rgb(248 , 249 , 250) ; display: inline ; float: none&quot;&gt;&amp;nbsp; &amp;nbsp; &amp;nbsp; &amp;nbsp; &amp;nbsp; &amp;nbsp; ▶&amp;nbsp; 문제되는 상황&amp;nbsp; ◀&amp;nbsp;&lt;br&gt;1.&amp;nbsp; 서비스는 안되지만 링크가 달렸을때&lt;br&gt;2. 서비스가 되지만 링크가 안달렸을때&lt;br&gt;3. 서비스도 안되고 링크도 안달릴때&lt;br&gt;&lt;/span&gt;" style="text;whiteSpace=wrap;html=1;fontStyle=1" parent="WIyWlLk6GJQsqaUBKTNV-1" vertex="1">
          <mxGeometry x="1585.0000000000002" y="4080" width="380" height="100" as="geometry" />
        </mxCell>
        <mxCell id="d6JHdZH8L2p2i41rlUMP-23" value="" style="shape=curlyBracket;whiteSpace=wrap;html=1;rounded=1;fontStyle=1" parent="WIyWlLk6GJQsqaUBKTNV-1" vertex="1">
          <mxGeometry x="1565" y="4070" width="20" height="120" as="geometry" />
        </mxCell>
        <mxCell id="d6JHdZH8L2p2i41rlUMP-36" value="" style="edgeStyle=segmentEdgeStyle;endArrow=classic;html=1;" parent="WIyWlLk6GJQsqaUBKTNV-1" edge="1">
          <mxGeometry width="50" height="50" relative="1" as="geometry">
            <mxPoint x="2200" y="4200" as="sourcePoint" />
            <mxPoint x="1220" y="3810" as="targetPoint" />
            <Array as="points">
              <mxPoint x="1220" y="4200" />
              <mxPoint x="1220" y="4150" />
            </Array>
          </mxGeometry>
        </mxCell>
        <mxCell id="S0diyraIF5dVVjEcDNjf-0" value="&lt;span style=&quot;font-size: 18px&quot;&gt;(MP3 -&amp;gt; Wav 컨버팅)&lt;br&gt;&lt;/span&gt;" style="text;html=1;strokeColor=none;fillColor=none;align=center;verticalAlign=middle;whiteSpace=wrap;rounded=0;fontStyle=1" vertex="1" parent="WIyWlLk6GJQsqaUBKTNV-1">
          <mxGeometry x="2025" y="1227.1" width="200" height="40" as="geometry" />
        </mxCell>
      </root>
    </mxGraphModel>
  </diagram>
  <diagram id="ZIYVdYPvncQoW6amuvdF" name="문제점표시_최종">
    <mxGraphModel dx="2240" dy="1374" grid="1" gridSize="10" guides="1" tooltips="1" connect="1" arrows="1" fold="1" page="1" pageScale="1" pageWidth="827" pageHeight="1169" math="0" shadow="0">
      <root>
        <mxCell id="ot4OCTmgo1wimuUBw3FC-0" />
        <mxCell id="ot4OCTmgo1wimuUBw3FC-1" parent="ot4OCTmgo1wimuUBw3FC-0" />
        <mxCell id="o5nmKJmsrvkyFQqaAit6-0" value="" style="group" vertex="1" connectable="0" parent="ot4OCTmgo1wimuUBw3FC-1">
          <mxGeometry x="950" y="70" width="1860" height="3990" as="geometry" />
        </mxCell>
        <mxCell id="o5nmKJmsrvkyFQqaAit6-1" value="&lt;span style=&quot;font-size: 18px&quot;&gt;등록업무&lt;/span&gt;" style="rounded=1;whiteSpace=wrap;html=1;fontStyle=1" vertex="1" parent="o5nmKJmsrvkyFQqaAit6-0">
          <mxGeometry x="1290" width="100" height="40" as="geometry" />
        </mxCell>
        <mxCell id="o5nmKJmsrvkyFQqaAit6-2" value="" style="endArrow=classic;html=1;fontStyle=1" edge="1" parent="o5nmKJmsrvkyFQqaAit6-0">
          <mxGeometry width="50" height="50" relative="1" as="geometry">
            <mxPoint x="1339.5" y="40" as="sourcePoint" />
            <mxPoint x="1340" y="130" as="targetPoint" />
          </mxGeometry>
        </mxCell>
        <mxCell id="o5nmKJmsrvkyFQqaAit6-3" value="&lt;font style=&quot;font-size: 18px&quot;&gt;Daily인가?&lt;/font&gt;" style="rhombus;whiteSpace=wrap;html=1;fontStyle=1" vertex="1" parent="o5nmKJmsrvkyFQqaAit6-0">
          <mxGeometry x="1275" y="130" width="130" height="80" as="geometry" />
        </mxCell>
        <mxCell id="o5nmKJmsrvkyFQqaAit6-4" value="&lt;span style=&quot;font-size: 18px&quot;&gt;No(대량)&lt;/span&gt;" style="text;html=1;strokeColor=none;fillColor=none;align=center;verticalAlign=middle;whiteSpace=wrap;rounded=0;fontStyle=1" vertex="1" parent="o5nmKJmsrvkyFQqaAit6-0">
          <mxGeometry x="1410" y="135" width="110" height="20" as="geometry" />
        </mxCell>
        <mxCell id="o5nmKJmsrvkyFQqaAit6-5" value="" style="edgeStyle=segmentEdgeStyle;endArrow=classic;html=1;fontStyle=1" edge="1" parent="o5nmKJmsrvkyFQqaAit6-0">
          <mxGeometry width="50" height="50" relative="1" as="geometry">
            <mxPoint x="1275" y="170" as="sourcePoint" />
            <mxPoint x="1040" y="270" as="targetPoint" />
            <Array as="points">
              <mxPoint x="1040" y="170" />
              <mxPoint x="1040" y="270" />
            </Array>
          </mxGeometry>
        </mxCell>
        <mxCell id="o5nmKJmsrvkyFQqaAit6-6" value="&lt;span style=&quot;font-size: 18px&quot;&gt;No&lt;/span&gt;" style="text;html=1;strokeColor=none;fillColor=none;align=center;verticalAlign=middle;whiteSpace=wrap;rounded=0;fontStyle=1" vertex="1" parent="o5nmKJmsrvkyFQqaAit6-0">
          <mxGeometry x="1010" y="410" width="120" height="20" as="geometry" />
        </mxCell>
        <mxCell id="o5nmKJmsrvkyFQqaAit6-7" value="&lt;font style=&quot;font-size: 18px&quot;&gt;유통사&lt;br&gt;신규 CMS 오픈&amp;nbsp;&lt;br&gt;여부 확인&lt;/font&gt;" style="rhombus;whiteSpace=wrap;html=1;fontStyle=1" vertex="1" parent="o5nmKJmsrvkyFQqaAit6-0">
          <mxGeometry x="930" y="270" width="220" height="120" as="geometry" />
        </mxCell>
        <mxCell id="o5nmKJmsrvkyFQqaAit6-8" value="&lt;span style=&quot;font-size: 18px&quot;&gt;신규 오픈 유통사&lt;/span&gt;" style="text;html=1;strokeColor=none;fillColor=none;align=center;verticalAlign=middle;whiteSpace=wrap;rounded=0;fontStyle=1" vertex="1" parent="o5nmKJmsrvkyFQqaAit6-0">
          <mxGeometry x="680" y="290" width="180" height="20" as="geometry" />
        </mxCell>
        <mxCell id="o5nmKJmsrvkyFQqaAit6-9" value="&lt;span style=&quot;font-size: 18px&quot;&gt;Yes&lt;/span&gt;" style="text;html=1;strokeColor=none;fillColor=none;align=center;verticalAlign=middle;whiteSpace=wrap;rounded=0;fontStyle=1" vertex="1" parent="o5nmKJmsrvkyFQqaAit6-0">
          <mxGeometry x="710" y="340" width="120" height="20" as="geometry" />
        </mxCell>
        <mxCell id="o5nmKJmsrvkyFQqaAit6-10" value="" style="endArrow=classic;html=1;fontStyle=1" edge="1" parent="o5nmKJmsrvkyFQqaAit6-0" target="o5nmKJmsrvkyFQqaAit6-11">
          <mxGeometry width="50" height="50" relative="1" as="geometry">
            <mxPoint x="1042" y="390" as="sourcePoint" />
            <mxPoint x="1040" y="430" as="targetPoint" />
          </mxGeometry>
        </mxCell>
        <mxCell id="o5nmKJmsrvkyFQqaAit6-11" value="&lt;span style=&quot;font-size: 18px&quot;&gt;&lt;br&gt;메일 공지 확인&lt;br&gt;&lt;br&gt;&lt;/span&gt;" style="rounded=0;whiteSpace=wrap;html=1;fontStyle=1" vertex="1" parent="o5nmKJmsrvkyFQqaAit6-0">
          <mxGeometry x="962" y="475" width="160" height="65" as="geometry" />
        </mxCell>
        <mxCell id="o5nmKJmsrvkyFQqaAit6-12" value="&lt;font style=&quot;font-size: 18px&quot;&gt;검수 대기 상태&lt;/font&gt;" style="rounded=0;whiteSpace=wrap;html=1;fontStyle=1" vertex="1" parent="o5nmKJmsrvkyFQqaAit6-0">
          <mxGeometry x="430" y="470" width="160" height="60" as="geometry" />
        </mxCell>
        <mxCell id="o5nmKJmsrvkyFQqaAit6-13" value="" style="endArrow=classic;html=1;exitX=0.5;exitY=1;exitDx=0;exitDy=0;fontStyle=1" edge="1" parent="o5nmKJmsrvkyFQqaAit6-0" source="o5nmKJmsrvkyFQqaAit6-11">
          <mxGeometry width="50" height="50" relative="1" as="geometry">
            <mxPoint x="1041" y="580" as="sourcePoint" />
            <mxPoint x="1041.41" y="610" as="targetPoint" />
          </mxGeometry>
        </mxCell>
        <mxCell id="o5nmKJmsrvkyFQqaAit6-14" value="&lt;span style=&quot;font-size: 18px&quot;&gt;중요도가 높은&amp;nbsp;&lt;br&gt;앨범인가?&lt;br&gt;&lt;/span&gt;" style="rhombus;whiteSpace=wrap;html=1;fontStyle=1" vertex="1" parent="o5nmKJmsrvkyFQqaAit6-0">
          <mxGeometry x="930" y="610" width="220" height="120" as="geometry" />
        </mxCell>
        <mxCell id="o5nmKJmsrvkyFQqaAit6-15" value="" style="endArrow=classic;html=1;fontStyle=1" edge="1" parent="o5nmKJmsrvkyFQqaAit6-0">
          <mxGeometry width="50" height="50" relative="1" as="geometry">
            <mxPoint x="509.40999999999985" y="530" as="sourcePoint" />
            <mxPoint x="509.40999999999985" y="610" as="targetPoint" />
          </mxGeometry>
        </mxCell>
        <mxCell id="o5nmKJmsrvkyFQqaAit6-16" value="&lt;span style=&quot;font-size: 18px&quot;&gt;중요도가 높은&amp;nbsp;&lt;br&gt;앨범인가?&lt;br&gt;&lt;/span&gt;" style="rhombus;whiteSpace=wrap;html=1;fontStyle=1" vertex="1" parent="o5nmKJmsrvkyFQqaAit6-0">
          <mxGeometry x="400" y="610" width="220" height="120" as="geometry" />
        </mxCell>
        <mxCell id="o5nmKJmsrvkyFQqaAit6-17" value="&lt;font style=&quot;font-size: 18px&quot;&gt;Trello 기록&lt;/font&gt;" style="rounded=0;whiteSpace=wrap;html=1;fontStyle=1" vertex="1" parent="o5nmKJmsrvkyFQqaAit6-0">
          <mxGeometry x="980" y="810" width="120" height="60" as="geometry" />
        </mxCell>
        <mxCell id="o5nmKJmsrvkyFQqaAit6-18" value="&lt;span style=&quot;font-size: 18px&quot;&gt;Yes&lt;/span&gt;" style="text;html=1;strokeColor=none;fillColor=none;align=center;verticalAlign=middle;whiteSpace=wrap;rounded=0;fontStyle=1" vertex="1" parent="o5nmKJmsrvkyFQqaAit6-0">
          <mxGeometry x="420" y="760" width="120" height="20" as="geometry" />
        </mxCell>
        <mxCell id="o5nmKJmsrvkyFQqaAit6-19" value="" style="endArrow=classic;html=1;fontStyle=1" edge="1" parent="o5nmKJmsrvkyFQqaAit6-0">
          <mxGeometry width="50" height="50" relative="1" as="geometry">
            <mxPoint x="1039.41" y="730" as="sourcePoint" />
            <mxPoint x="1039.41" y="810" as="targetPoint" />
          </mxGeometry>
        </mxCell>
        <mxCell id="o5nmKJmsrvkyFQqaAit6-20" value="" style="endArrow=classic;html=1;entryX=0.5;entryY=0;entryDx=0;entryDy=0;fontStyle=1" edge="1" parent="o5nmKJmsrvkyFQqaAit6-0" target="o5nmKJmsrvkyFQqaAit6-31">
          <mxGeometry width="50" height="50" relative="1" as="geometry">
            <mxPoint x="509.40999999999985" y="730" as="sourcePoint" />
            <mxPoint x="509.40999999999985" y="810" as="targetPoint" />
          </mxGeometry>
        </mxCell>
        <mxCell id="o5nmKJmsrvkyFQqaAit6-21" value="&lt;span style=&quot;font-size: 18px&quot;&gt;Yes&lt;/span&gt;" style="text;html=1;strokeColor=none;fillColor=none;align=center;verticalAlign=middle;whiteSpace=wrap;rounded=0;fontStyle=1" vertex="1" parent="o5nmKJmsrvkyFQqaAit6-0">
          <mxGeometry x="950" y="760" width="120" height="20" as="geometry" />
        </mxCell>
        <mxCell id="o5nmKJmsrvkyFQqaAit6-22" value="&lt;span style=&quot;font-size: 18px&quot;&gt;검수 완료&lt;/span&gt;" style="rounded=0;whiteSpace=wrap;html=1;fontStyle=1" vertex="1" parent="o5nmKJmsrvkyFQqaAit6-0">
          <mxGeometry x="720" y="1630" width="160" height="60" as="geometry" />
        </mxCell>
        <mxCell id="o5nmKJmsrvkyFQqaAit6-25" value="" style="edgeStyle=elbowEdgeStyle;elbow=horizontal;endArrow=classic;html=1;fontStyle=1" edge="1" parent="o5nmKJmsrvkyFQqaAit6-0">
          <mxGeometry width="50" height="50" relative="1" as="geometry">
            <mxPoint x="400" y="670" as="sourcePoint" />
            <mxPoint x="480" y="980" as="targetPoint" />
            <Array as="points">
              <mxPoint x="340" y="800" />
            </Array>
          </mxGeometry>
        </mxCell>
        <mxCell id="o5nmKJmsrvkyFQqaAit6-26" value="" style="endArrow=classic;html=1;fontStyle=1" edge="1" parent="o5nmKJmsrvkyFQqaAit6-0">
          <mxGeometry width="50" height="50" relative="1" as="geometry">
            <mxPoint x="509.28999999999974" y="880" as="sourcePoint" />
            <mxPoint x="509" y="950" as="targetPoint" />
          </mxGeometry>
        </mxCell>
        <mxCell id="o5nmKJmsrvkyFQqaAit6-27" value="" style="edgeStyle=elbowEdgeStyle;elbow=horizontal;endArrow=classic;html=1;entryX=1;entryY=0.5;entryDx=0;entryDy=0;fontStyle=1" edge="1" parent="o5nmKJmsrvkyFQqaAit6-0" target="o5nmKJmsrvkyFQqaAit6-32">
          <mxGeometry width="50" height="50" relative="1" as="geometry">
            <mxPoint x="1150" y="670" as="sourcePoint" />
            <mxPoint x="1110" y="980" as="targetPoint" />
            <Array as="points">
              <mxPoint x="1190" y="920" />
              <mxPoint x="1210" y="840" />
            </Array>
          </mxGeometry>
        </mxCell>
        <mxCell id="o5nmKJmsrvkyFQqaAit6-28" value="" style="endArrow=classic;html=1;fontStyle=1" edge="1" parent="o5nmKJmsrvkyFQqaAit6-0">
          <mxGeometry width="50" height="50" relative="1" as="geometry">
            <mxPoint x="1039.4099999999999" y="870" as="sourcePoint" />
            <mxPoint x="1039.4099999999999" y="950" as="targetPoint" />
          </mxGeometry>
        </mxCell>
        <mxCell id="o5nmKJmsrvkyFQqaAit6-29" value="&lt;span style=&quot;font-size: 18px&quot;&gt;Yes&lt;/span&gt;" style="text;html=1;strokeColor=none;fillColor=none;align=center;verticalAlign=middle;whiteSpace=wrap;rounded=0;fontStyle=1" vertex="1" parent="o5nmKJmsrvkyFQqaAit6-0">
          <mxGeometry x="680" y="1445" width="120" height="20" as="geometry" />
        </mxCell>
        <mxCell id="o5nmKJmsrvkyFQqaAit6-30" value="&lt;span style=&quot;font-size: 18px&quot;&gt;No&lt;/span&gt;" style="text;html=1;strokeColor=none;fillColor=none;align=center;verticalAlign=middle;whiteSpace=wrap;rounded=0;fontStyle=1" vertex="1" parent="o5nmKJmsrvkyFQqaAit6-0">
          <mxGeometry x="1190" y="830" width="120" height="20" as="geometry" />
        </mxCell>
        <mxCell id="o5nmKJmsrvkyFQqaAit6-31" value="&lt;font style=&quot;font-size: 18px&quot;&gt;Trello 기록&lt;/font&gt;" style="rounded=0;whiteSpace=wrap;html=1;fontStyle=1" vertex="1" parent="o5nmKJmsrvkyFQqaAit6-0">
          <mxGeometry x="450" y="820" width="120" height="60" as="geometry" />
        </mxCell>
        <mxCell id="o5nmKJmsrvkyFQqaAit6-32" value="&lt;font style=&quot;font-size: 18px&quot;&gt;물리파일 수급&lt;br&gt;(웹하드/구글 첨부 자료)&lt;br&gt;&lt;/font&gt;" style="rounded=0;whiteSpace=wrap;html=1;fontStyle=1" vertex="1" parent="o5nmKJmsrvkyFQqaAit6-0">
          <mxGeometry x="923.5" y="950" width="237" height="60" as="geometry" />
        </mxCell>
        <mxCell id="o5nmKJmsrvkyFQqaAit6-33" value="&lt;span style=&quot;font-size: 18px&quot;&gt;유통사 data 업로드&lt;/span&gt;" style="rounded=0;whiteSpace=wrap;html=1;fontStyle=1" vertex="1" parent="o5nmKJmsrvkyFQqaAit6-0">
          <mxGeometry x="430" y="300" width="160" height="60" as="geometry" />
        </mxCell>
        <mxCell id="o5nmKJmsrvkyFQqaAit6-34" value="" style="endArrow=classic;html=1;entryX=1;entryY=0.5;entryDx=0;entryDy=0;fontStyle=1" edge="1" parent="o5nmKJmsrvkyFQqaAit6-0" target="o5nmKJmsrvkyFQqaAit6-33">
          <mxGeometry width="50" height="50" relative="1" as="geometry">
            <mxPoint x="930" y="330" as="sourcePoint" />
            <mxPoint x="610" y="330" as="targetPoint" />
          </mxGeometry>
        </mxCell>
        <mxCell id="o5nmKJmsrvkyFQqaAit6-35" value="" style="endArrow=classic;html=1;entryX=0.5;entryY=0;entryDx=0;entryDy=0;fontStyle=1" edge="1" parent="o5nmKJmsrvkyFQqaAit6-0" target="o5nmKJmsrvkyFQqaAit6-12">
          <mxGeometry width="50" height="50" relative="1" as="geometry">
            <mxPoint x="510" y="360" as="sourcePoint" />
            <mxPoint x="560" y="310" as="targetPoint" />
          </mxGeometry>
        </mxCell>
        <mxCell id="o5nmKJmsrvkyFQqaAit6-36" value="&lt;font style=&quot;font-size: 18px&quot;&gt;물리파일 유효성&lt;br&gt;확인&lt;br&gt;&lt;/font&gt;" style="html=1;whiteSpace=wrap;aspect=fixed;shape=isoRectangle;fontStyle=1" vertex="1" parent="o5nmKJmsrvkyFQqaAit6-0">
          <mxGeometry x="942.4199999999998" y="1080" width="195.17" height="117.1" as="geometry" />
        </mxCell>
        <mxCell id="o5nmKJmsrvkyFQqaAit6-37" value="" style="endArrow=classic;html=1;fontStyle=1;entryX=0.5;entryY=0;entryDx=0;entryDy=0;" edge="1" parent="o5nmKJmsrvkyFQqaAit6-0" target="o5nmKJmsrvkyFQqaAit6-54">
          <mxGeometry width="50" height="50" relative="1" as="geometry">
            <mxPoint x="509.40999999999985" y="1009.9999999999998" as="sourcePoint" />
            <mxPoint x="509" y="1090" as="targetPoint" />
          </mxGeometry>
        </mxCell>
        <mxCell id="o5nmKJmsrvkyFQqaAit6-38" value="" style="edgeStyle=elbowEdgeStyle;elbow=horizontal;endArrow=classic;html=1;fontStyle=1" edge="1" parent="o5nmKJmsrvkyFQqaAit6-0">
          <mxGeometry width="50" height="50" relative="1" as="geometry">
            <mxPoint x="440" y="1150" as="sourcePoint" />
            <mxPoint x="430" y="330" as="targetPoint" />
            <Array as="points">
              <mxPoint x="200" y="450" />
            </Array>
          </mxGeometry>
        </mxCell>
        <mxCell id="o5nmKJmsrvkyFQqaAit6-39" value="&lt;span style=&quot;font-size: 18px&quot;&gt;물리파일 불완전&lt;/span&gt;" style="text;html=1;strokeColor=none;fillColor=none;align=center;verticalAlign=middle;whiteSpace=wrap;rounded=0;fontStyle=1" vertex="1" parent="o5nmKJmsrvkyFQqaAit6-0">
          <mxGeometry x="1170" y="1050" width="200" height="40" as="geometry" />
        </mxCell>
        <mxCell id="o5nmKJmsrvkyFQqaAit6-42" value="" style="endArrow=classic;html=1;fontStyle=1" edge="1" parent="o5nmKJmsrvkyFQqaAit6-0">
          <mxGeometry width="50" height="50" relative="1" as="geometry">
            <mxPoint x="1041.8199999999997" y="1010" as="sourcePoint" />
            <mxPoint x="1041.4099999999999" y="1080" as="targetPoint" />
          </mxGeometry>
        </mxCell>
        <mxCell id="o5nmKJmsrvkyFQqaAit6-43" value="" style="edgeStyle=elbowEdgeStyle;elbow=horizontal;endArrow=classic;html=1;fontStyle=1" edge="1" parent="o5nmKJmsrvkyFQqaAit6-0">
          <mxGeometry width="50" height="50" relative="1" as="geometry">
            <mxPoint x="1137.5900000000001" y="1140" as="sourcePoint" />
            <mxPoint x="1160" y="1000" as="targetPoint" />
            <Array as="points">
              <mxPoint x="1190" y="1070" />
            </Array>
          </mxGeometry>
        </mxCell>
        <mxCell id="o5nmKJmsrvkyFQqaAit6-44" value="&lt;span style=&quot;font-size: 18px&quot;&gt;업로드 데이터 불완전&lt;/span&gt;" style="text;html=1;strokeColor=none;fillColor=none;align=center;verticalAlign=middle;whiteSpace=wrap;rounded=0;fontStyle=1" vertex="1" parent="o5nmKJmsrvkyFQqaAit6-0">
          <mxGeometry x="230" y="1090" width="200" height="40" as="geometry" />
        </mxCell>
        <mxCell id="o5nmKJmsrvkyFQqaAit6-45" value="" style="endArrow=classic;html=1;fontStyle=1;entryX=0.5;entryY=0.02;entryDx=0;entryDy=0;entryPerimeter=0;" edge="1" parent="o5nmKJmsrvkyFQqaAit6-0" target="o5nmKJmsrvkyFQqaAit6-48">
          <mxGeometry width="50" height="50" relative="1" as="geometry">
            <mxPoint x="509.40999999999985" y="1189.9999999999998" as="sourcePoint" />
            <mxPoint x="508" y="1400" as="targetPoint" />
          </mxGeometry>
        </mxCell>
        <mxCell id="o5nmKJmsrvkyFQqaAit6-46" value="" style="endArrow=classic;html=1;fontStyle=1" edge="1" parent="o5nmKJmsrvkyFQqaAit6-0">
          <mxGeometry width="50" height="50" relative="1" as="geometry">
            <mxPoint x="1039.8199999999997" y="1194.9" as="sourcePoint" />
            <mxPoint x="1039" y="1390" as="targetPoint" />
          </mxGeometry>
        </mxCell>
        <mxCell id="o5nmKJmsrvkyFQqaAit6-47" value="&lt;span style=&quot;font-size: 18px&quot;&gt;Yes&lt;/span&gt;" style="text;html=1;strokeColor=none;fillColor=none;align=center;verticalAlign=middle;whiteSpace=wrap;rounded=0;fontStyle=1" vertex="1" parent="o5nmKJmsrvkyFQqaAit6-0">
          <mxGeometry x="1017.5900000000001" y="1610" width="120" height="20" as="geometry" />
        </mxCell>
        <mxCell id="o5nmKJmsrvkyFQqaAit6-48" value="&lt;font style=&quot;font-size: 18px&quot;&gt;애플 뮤직 스타일 가이드&lt;br&gt;를 완벽히&amp;nbsp;&lt;br&gt;준수하였는가?&lt;br&gt;&lt;/font&gt;" style="html=1;whiteSpace=wrap;aspect=fixed;shape=isoRectangle;fontStyle=1" vertex="1" parent="o5nmKJmsrvkyFQqaAit6-0">
          <mxGeometry x="355.84000000000015" y="1390" width="308.33" height="185" as="geometry" />
        </mxCell>
        <mxCell id="o5nmKJmsrvkyFQqaAit6-49" value="" style="edgeStyle=segmentEdgeStyle;endArrow=classic;html=1;fontStyle=1" edge="1" parent="o5nmKJmsrvkyFQqaAit6-0">
          <mxGeometry width="50" height="50" relative="1" as="geometry">
            <mxPoint x="664.1700000000001" y="1480" as="sourcePoint" />
            <mxPoint x="804.1700000000001" y="1630" as="targetPoint" />
            <Array as="points">
              <mxPoint x="804.1700000000001" y="1480" />
              <mxPoint x="804.1700000000001" y="1610" />
            </Array>
          </mxGeometry>
        </mxCell>
        <mxCell id="o5nmKJmsrvkyFQqaAit6-50" value="" style="edgeStyle=segmentEdgeStyle;endArrow=classic;html=1;fontStyle=1" edge="1" parent="o5nmKJmsrvkyFQqaAit6-0">
          <mxGeometry width="50" height="50" relative="1" as="geometry">
            <mxPoint x="355.84000000000015" y="1480" as="sourcePoint" />
            <mxPoint x="204.17000000000007" y="1630" as="targetPoint" />
            <Array as="points">
              <mxPoint x="204.17000000000007" y="1480" />
              <mxPoint x="204.17000000000007" y="1610" />
            </Array>
          </mxGeometry>
        </mxCell>
        <mxCell id="o5nmKJmsrvkyFQqaAit6-51" value="&lt;span style=&quot;font-size: 18px&quot;&gt;No&lt;/span&gt;" style="text;html=1;strokeColor=none;fillColor=none;align=center;verticalAlign=middle;whiteSpace=wrap;rounded=0;fontStyle=1" vertex="1" parent="o5nmKJmsrvkyFQqaAit6-0">
          <mxGeometry x="235.83999999999992" y="1440" width="120" height="20" as="geometry" />
        </mxCell>
        <mxCell id="o5nmKJmsrvkyFQqaAit6-52" value="&lt;span style=&quot;font-size: 18px&quot;&gt;No&lt;/span&gt;" style="text;html=1;strokeColor=none;fillColor=none;align=center;verticalAlign=middle;whiteSpace=wrap;rounded=0;fontStyle=1" vertex="1" parent="o5nmKJmsrvkyFQqaAit6-0">
          <mxGeometry x="250" y="840" width="120" height="20" as="geometry" />
        </mxCell>
        <mxCell id="o5nmKJmsrvkyFQqaAit6-53" value="&lt;span style=&quot;font-size: 18px&quot;&gt;애플 뮤직 스타일&lt;br&gt;가이드에 따른&lt;br&gt;데이터 처리&lt;br&gt;&lt;/span&gt;" style="rounded=0;whiteSpace=wrap;html=1;fontStyle=1" vertex="1" parent="o5nmKJmsrvkyFQqaAit6-0">
          <mxGeometry x="90" y="1630" width="230" height="80" as="geometry" />
        </mxCell>
        <mxCell id="o5nmKJmsrvkyFQqaAit6-54" value="&lt;span style=&quot;font-size: 18px&quot;&gt;검수진행&lt;/span&gt;" style="rounded=0;whiteSpace=wrap;html=1;fontStyle=1" vertex="1" parent="o5nmKJmsrvkyFQqaAit6-0">
          <mxGeometry x="445" y="1100" width="130" height="90" as="geometry" />
        </mxCell>
        <mxCell id="o5nmKJmsrvkyFQqaAit6-55" value="&lt;span style=&quot;font-size: 18px&quot;&gt;검수 완료 주의&lt;br&gt;comment 추가&lt;br&gt;&lt;/span&gt;" style="rounded=0;whiteSpace=wrap;html=1;fontStyle=1" vertex="1" parent="o5nmKJmsrvkyFQqaAit6-0">
          <mxGeometry x="117.5" y="1800" width="175" height="60" as="geometry" />
        </mxCell>
        <mxCell id="o5nmKJmsrvkyFQqaAit6-56" value="" style="endArrow=classic;html=1;fontStyle=1" edge="1" parent="o5nmKJmsrvkyFQqaAit6-0">
          <mxGeometry width="50" height="50" relative="1" as="geometry">
            <mxPoint x="204.41000000000008" y="1710" as="sourcePoint" />
            <mxPoint x="204.41000000000008" y="1800" as="targetPoint" />
          </mxGeometry>
        </mxCell>
        <mxCell id="o5nmKJmsrvkyFQqaAit6-57" value="" style="edgeStyle=segmentEdgeStyle;endArrow=classic;html=1;fontStyle=1" edge="1" parent="o5nmKJmsrvkyFQqaAit6-0" target="o5nmKJmsrvkyFQqaAit6-59">
          <mxGeometry width="50" height="50" relative="1" as="geometry">
            <mxPoint x="210" y="1860" as="sourcePoint" />
            <mxPoint x="470" y="1950" as="targetPoint" />
            <Array as="points">
              <mxPoint x="210" y="1950" />
              <mxPoint x="260" y="1950" />
            </Array>
          </mxGeometry>
        </mxCell>
        <mxCell id="o5nmKJmsrvkyFQqaAit6-58" value="" style="edgeStyle=segmentEdgeStyle;endArrow=classic;html=1;entryX=1;entryY=0.5;entryDx=0;entryDy=0;fontStyle=1" edge="1" parent="o5nmKJmsrvkyFQqaAit6-0" target="o5nmKJmsrvkyFQqaAit6-59">
          <mxGeometry width="50" height="50" relative="1" as="geometry">
            <mxPoint x="800" y="1690" as="sourcePoint" />
            <mxPoint x="530" y="1950" as="targetPoint" />
            <Array as="points">
              <mxPoint x="800" y="1950" />
            </Array>
          </mxGeometry>
        </mxCell>
        <mxCell id="o5nmKJmsrvkyFQqaAit6-59" value="" style="shape=sumEllipse;perimeter=ellipsePerimeter;whiteSpace=wrap;html=1;backgroundOutline=1;fontStyle=1" vertex="1" parent="o5nmKJmsrvkyFQqaAit6-0">
          <mxGeometry x="475" y="1910" width="70" height="80" as="geometry" />
        </mxCell>
        <mxCell id="o5nmKJmsrvkyFQqaAit6-60" value="" style="endArrow=classic;html=1;fontStyle=1" edge="1" parent="o5nmKJmsrvkyFQqaAit6-0">
          <mxGeometry width="50" height="50" relative="1" as="geometry">
            <mxPoint x="510" y="1990" as="sourcePoint" />
            <mxPoint x="510" y="2100" as="targetPoint" />
          </mxGeometry>
        </mxCell>
        <mxCell id="o5nmKJmsrvkyFQqaAit6-61" value="&lt;span style=&quot;font-size: 18px&quot;&gt;앨범 전송&lt;/span&gt;" style="rounded=0;whiteSpace=wrap;html=1;fontStyle=1" vertex="1" parent="o5nmKJmsrvkyFQqaAit6-0">
          <mxGeometry x="1315" y="3400" width="185" height="80" as="geometry" />
        </mxCell>
        <mxCell id="o5nmKJmsrvkyFQqaAit6-62" value="" style="endArrow=classic;html=1;fontStyle=1" edge="1" parent="o5nmKJmsrvkyFQqaAit6-0">
          <mxGeometry width="50" height="50" relative="1" as="geometry">
            <mxPoint x="510" y="2160" as="sourcePoint" />
            <mxPoint x="510" y="2270" as="targetPoint" />
          </mxGeometry>
        </mxCell>
        <mxCell id="o5nmKJmsrvkyFQqaAit6-63" value="&lt;font style=&quot;font-size: 18px&quot;&gt;전송된 데이터 &lt;br&gt;구 CMS 내에서&lt;br&gt;정리&lt;/font&gt;" style="rounded=0;whiteSpace=wrap;html=1;fontStyle=1" vertex="1" parent="o5nmKJmsrvkyFQqaAit6-0">
          <mxGeometry x="400" y="2270" width="220" height="70" as="geometry" />
        </mxCell>
        <mxCell id="o5nmKJmsrvkyFQqaAit6-66" value="" style="endArrow=classic;html=1;entryX=0.5;entryY=0;entryDx=0;entryDy=0;fontStyle=1" edge="1" parent="o5nmKJmsrvkyFQqaAit6-0" target="o5nmKJmsrvkyFQqaAit6-67">
          <mxGeometry width="50" height="50" relative="1" as="geometry">
            <mxPoint x="510" y="2340" as="sourcePoint" />
            <mxPoint x="510" y="2400" as="targetPoint" />
          </mxGeometry>
        </mxCell>
        <mxCell id="o5nmKJmsrvkyFQqaAit6-67" value="&lt;font style=&quot;font-size: 18px&quot;&gt;발매 시간 이후 국내&lt;br&gt;유통사와 앨범 비교 / 대조&lt;br&gt;및 애플 뮤직 스타일가이드&lt;br&gt;최종확인&lt;br&gt;&lt;/font&gt;" style="rounded=0;whiteSpace=wrap;html=1;fontStyle=1" vertex="1" parent="o5nmKJmsrvkyFQqaAit6-0">
          <mxGeometry x="390.01" y="2420" width="240" height="130" as="geometry" />
        </mxCell>
        <mxCell id="o5nmKJmsrvkyFQqaAit6-70" value="" style="endArrow=classic;html=1;exitX=0.5;exitY=1;exitDx=0;exitDy=0;fontStyle=1" edge="1" parent="o5nmKJmsrvkyFQqaAit6-0" source="o5nmKJmsrvkyFQqaAit6-67">
          <mxGeometry width="50" height="50" relative="1" as="geometry">
            <mxPoint x="509.28999999999996" y="2570" as="sourcePoint" />
            <mxPoint x="509" y="2650" as="targetPoint" />
          </mxGeometry>
        </mxCell>
        <mxCell id="o5nmKJmsrvkyFQqaAit6-71" value="&lt;font style=&quot;font-size: 18px&quot;&gt;구 CMS 전송&lt;/font&gt;" style="rounded=0;whiteSpace=wrap;html=1;fontStyle=1" vertex="1" parent="o5nmKJmsrvkyFQqaAit6-0">
          <mxGeometry x="432.5" y="2100" width="185" height="70" as="geometry" />
        </mxCell>
        <mxCell id="o5nmKJmsrvkyFQqaAit6-72" value="" style="endArrow=classic;html=1;fontStyle=1;entryX=0.506;entryY=0.044;entryDx=0;entryDy=0;entryPerimeter=0;" edge="1" parent="o5nmKJmsrvkyFQqaAit6-0" target="o5nmKJmsrvkyFQqaAit6-73">
          <mxGeometry width="50" height="50" relative="1" as="geometry">
            <mxPoint x="509.5799999999999" y="2710" as="sourcePoint" />
            <mxPoint x="507" y="2797" as="targetPoint" />
          </mxGeometry>
        </mxCell>
        <mxCell id="o5nmKJmsrvkyFQqaAit6-73" value="&lt;font style=&quot;font-size: 18px&quot;&gt;유효성 검사를 &lt;br&gt;통과 하였는가?&lt;/font&gt;" style="html=1;whiteSpace=wrap;aspect=fixed;shape=isoRectangle;fontStyle=1" vertex="1" parent="o5nmKJmsrvkyFQqaAit6-0">
          <mxGeometry x="376.6700000000001" y="2790" width="266.67" height="160" as="geometry" />
        </mxCell>
        <mxCell id="o5nmKJmsrvkyFQqaAit6-74" value="" style="edgeStyle=elbowEdgeStyle;elbow=horizontal;endArrow=classic;html=1;entryX=1;entryY=0.5;entryDx=0;entryDy=0;fontStyle=1" edge="1" parent="o5nmKJmsrvkyFQqaAit6-0" target="o5nmKJmsrvkyFQqaAit6-67">
          <mxGeometry width="50" height="50" relative="1" as="geometry">
            <mxPoint x="643.3399999999999" y="2870" as="sourcePoint" />
            <mxPoint x="780" y="2480" as="targetPoint" />
            <Array as="points">
              <mxPoint x="720" y="2670" />
            </Array>
          </mxGeometry>
        </mxCell>
        <mxCell id="o5nmKJmsrvkyFQqaAit6-75" value="&lt;span style=&quot;font-size: 18px&quot;&gt;No&lt;/span&gt;" style="text;html=1;strokeColor=none;fillColor=none;align=center;verticalAlign=middle;whiteSpace=wrap;rounded=0;fontStyle=1" vertex="1" parent="o5nmKJmsrvkyFQqaAit6-0">
          <mxGeometry x="730" y="2670" width="80" height="20" as="geometry" />
        </mxCell>
        <mxCell id="o5nmKJmsrvkyFQqaAit6-76" value="&lt;font style=&quot;font-size: 18px&quot;&gt;정상적으로 해외 플랫폼에&lt;br&gt;Ingestion이 완료되었는가?&lt;/font&gt;" style="rhombus;whiteSpace=wrap;html=1;fontStyle=1" vertex="1" parent="o5nmKJmsrvkyFQqaAit6-0">
          <mxGeometry x="1260.0100000000002" y="3610" width="280" height="190" as="geometry" />
        </mxCell>
        <mxCell id="o5nmKJmsrvkyFQqaAit6-77" value="" style="endArrow=classic;html=1;fontStyle=1;" edge="1" parent="o5nmKJmsrvkyFQqaAit6-0">
          <mxGeometry width="50" height="50" relative="1" as="geometry">
            <mxPoint x="1400" y="3480" as="sourcePoint" />
            <mxPoint x="1400" y="3608.33" as="targetPoint" />
          </mxGeometry>
        </mxCell>
        <mxCell id="o5nmKJmsrvkyFQqaAit6-78" value="&lt;span style=&quot;font-size: 18px&quot;&gt;No&lt;/span&gt;" style="text;html=1;strokeColor=none;fillColor=none;align=center;verticalAlign=middle;whiteSpace=wrap;rounded=0;fontStyle=1" vertex="1" parent="o5nmKJmsrvkyFQqaAit6-0">
          <mxGeometry x="720" y="3670" width="80" height="20" as="geometry" />
        </mxCell>
        <mxCell id="o5nmKJmsrvkyFQqaAit6-79" value="&lt;span style=&quot;font-size: 18px&quot;&gt;개발팀&amp;nbsp; 및 플랫폼 문의&lt;br&gt;후&amp;nbsp; 오류해결&lt;br&gt;&lt;/span&gt;" style="rounded=0;whiteSpace=wrap;html=1;fontStyle=1" vertex="1" parent="o5nmKJmsrvkyFQqaAit6-0">
          <mxGeometry x="146.26" y="3650" width="243.75" height="85" as="geometry" />
        </mxCell>
        <mxCell id="o5nmKJmsrvkyFQqaAit6-80" value="&lt;span style=&quot;font-size: 18px&quot;&gt;Yes&lt;/span&gt;" style="text;html=1;strokeColor=none;fillColor=none;align=center;verticalAlign=middle;whiteSpace=wrap;rounded=0;fontStyle=1" vertex="1" parent="o5nmKJmsrvkyFQqaAit6-0">
          <mxGeometry x="1405" y="3910" width="80" height="20" as="geometry" />
        </mxCell>
        <mxCell id="o5nmKJmsrvkyFQqaAit6-81" value="&lt;font style=&quot;font-size: 18px&quot;&gt;해당 유통사는&lt;br&gt;메타 추출 가능한&lt;br&gt;유통사인가?&lt;/font&gt;" style="html=1;whiteSpace=wrap;aspect=fixed;shape=isoRectangle;fontStyle=1" vertex="1" parent="o5nmKJmsrvkyFQqaAit6-0">
          <mxGeometry x="915" y="1390" width="250" height="150" as="geometry" />
        </mxCell>
        <mxCell id="o5nmKJmsrvkyFQqaAit6-82" value="" style="endArrow=classic;html=1;fontStyle=1;entryX=0.459;entryY=0.033;entryDx=0;entryDy=0;entryPerimeter=0;" edge="1" parent="o5nmKJmsrvkyFQqaAit6-0" target="o5nmKJmsrvkyFQqaAit6-87">
          <mxGeometry width="50" height="50" relative="1" as="geometry">
            <mxPoint x="1042.1100000000001" y="1540" as="sourcePoint" />
            <mxPoint x="1041" y="1650" as="targetPoint" />
          </mxGeometry>
        </mxCell>
        <mxCell id="o5nmKJmsrvkyFQqaAit6-83" value="&lt;span style=&quot;font-size: 18px&quot;&gt;Yes&lt;/span&gt;" style="text;html=1;strokeColor=none;fillColor=none;align=center;verticalAlign=middle;whiteSpace=wrap;rounded=0;fontStyle=1" vertex="1" parent="o5nmKJmsrvkyFQqaAit6-0">
          <mxGeometry x="1010.0000000000002" y="1280" width="120" height="20" as="geometry" />
        </mxCell>
        <mxCell id="o5nmKJmsrvkyFQqaAit6-84" value="" style="endArrow=classic;html=1;fontStyle=1" edge="1" parent="o5nmKJmsrvkyFQqaAit6-0">
          <mxGeometry width="50" height="50" relative="1" as="geometry">
            <mxPoint x="1166.1100000000001" y="1465" as="sourcePoint" />
            <mxPoint x="1280" y="1465" as="targetPoint" />
          </mxGeometry>
        </mxCell>
        <mxCell id="o5nmKJmsrvkyFQqaAit6-85" value="&lt;span style=&quot;font-size: 18px&quot;&gt;No&lt;/span&gt;" style="text;html=1;strokeColor=none;fillColor=none;align=center;verticalAlign=middle;whiteSpace=wrap;rounded=0;fontStyle=1" vertex="1" parent="o5nmKJmsrvkyFQqaAit6-0">
          <mxGeometry x="1150" y="1425" width="120" height="20" as="geometry" />
        </mxCell>
        <mxCell id="o5nmKJmsrvkyFQqaAit6-86" value="&lt;span style=&quot;font-size: 18px&quot;&gt;Common Meta &lt;br&gt;엑셀 형식에 맞추어&lt;br&gt;엑셀 정리&lt;br&gt;&lt;/span&gt;" style="rounded=0;whiteSpace=wrap;html=1;fontStyle=1" vertex="1" parent="o5nmKJmsrvkyFQqaAit6-0">
          <mxGeometry x="1280" y="1430" width="220" height="65" as="geometry" />
        </mxCell>
        <mxCell id="o5nmKJmsrvkyFQqaAit6-87" value="&lt;span style=&quot;font-size: 18px&quot;&gt;트랙리스트 취함&amp;nbsp;&lt;br&gt;및 압축&lt;br&gt;&lt;/span&gt;" style="rounded=0;whiteSpace=wrap;html=1;fontStyle=1" vertex="1" parent="o5nmKJmsrvkyFQqaAit6-0">
          <mxGeometry x="923.5" y="1690" width="257.58" height="60" as="geometry" />
        </mxCell>
        <mxCell id="o5nmKJmsrvkyFQqaAit6-88" value="" style="endArrow=classic;html=1;fontStyle=1" edge="1" parent="o5nmKJmsrvkyFQqaAit6-0">
          <mxGeometry width="50" height="50" relative="1" as="geometry">
            <mxPoint x="1039" y="1750" as="sourcePoint" />
            <mxPoint x="1039.29" y="1930" as="targetPoint" />
          </mxGeometry>
        </mxCell>
        <mxCell id="o5nmKJmsrvkyFQqaAit6-89" value="&lt;span style=&quot;font-size: 18px&quot;&gt;메타추출&lt;/span&gt;" style="rounded=0;whiteSpace=wrap;html=1;fontStyle=1" vertex="1" parent="o5nmKJmsrvkyFQqaAit6-0">
          <mxGeometry x="950" y="1930" width="180" height="60" as="geometry" />
        </mxCell>
        <mxCell id="o5nmKJmsrvkyFQqaAit6-90" value="" style="endArrow=classic;html=1;entryX=0;entryY=0.5;entryDx=0;entryDy=0;fontStyle=1" edge="1" parent="o5nmKJmsrvkyFQqaAit6-0" target="o5nmKJmsrvkyFQqaAit6-91">
          <mxGeometry width="50" height="50" relative="1" as="geometry">
            <mxPoint x="1130.0000000000005" y="1959.29" as="sourcePoint" />
            <mxPoint x="1243.8899999999999" y="1959.29" as="targetPoint" />
          </mxGeometry>
        </mxCell>
        <mxCell id="o5nmKJmsrvkyFQqaAit6-91" value="&lt;span style=&quot;font-size: 18px&quot;&gt;정제된 데이터&lt;br&gt;&lt;/span&gt;" style="rounded=0;whiteSpace=wrap;html=1;fontStyle=1" vertex="1" parent="o5nmKJmsrvkyFQqaAit6-0">
          <mxGeometry x="1280" y="1930" width="210" height="60" as="geometry" />
        </mxCell>
        <mxCell id="o5nmKJmsrvkyFQqaAit6-92" value="" style="endArrow=classic;html=1;fontStyle=1" edge="1" parent="o5nmKJmsrvkyFQqaAit6-0">
          <mxGeometry width="50" height="50" relative="1" as="geometry">
            <mxPoint x="1400" y="1495" as="sourcePoint" />
            <mxPoint x="1400" y="1930" as="targetPoint" />
          </mxGeometry>
        </mxCell>
        <mxCell id="o5nmKJmsrvkyFQqaAit6-94" value="&lt;span style=&quot;font-size: 18px&quot;&gt;No&lt;/span&gt;" style="text;html=1;strokeColor=none;fillColor=none;align=center;verticalAlign=middle;whiteSpace=wrap;rounded=0;fontStyle=1" vertex="1" parent="o5nmKJmsrvkyFQqaAit6-0">
          <mxGeometry x="1210" y="1080" width="120" height="20" as="geometry" />
        </mxCell>
        <mxCell id="o5nmKJmsrvkyFQqaAit6-95" value="" style="endArrow=classic;html=1;fontStyle=1" edge="1" parent="o5nmKJmsrvkyFQqaAit6-0">
          <mxGeometry width="50" height="50" relative="1" as="geometry">
            <mxPoint x="1400" y="1990" as="sourcePoint" />
            <mxPoint x="1400" y="2070" as="targetPoint" />
          </mxGeometry>
        </mxCell>
        <mxCell id="o5nmKJmsrvkyFQqaAit6-96" value="&lt;font style=&quot;font-size: 18px&quot;&gt;애플 뮤직 스타일 가이드&lt;br&gt;에 맞추어서 &lt;br&gt;데이터 정리&lt;/font&gt;" style="rounded=0;whiteSpace=wrap;html=1;fontStyle=1" vertex="1" parent="o5nmKJmsrvkyFQqaAit6-0">
          <mxGeometry x="1290" y="2070" width="220" height="100" as="geometry" />
        </mxCell>
        <mxCell id="o5nmKJmsrvkyFQqaAit6-97" value="" style="endArrow=classic;html=1;fontStyle=1" edge="1" parent="o5nmKJmsrvkyFQqaAit6-0">
          <mxGeometry width="50" height="50" relative="1" as="geometry">
            <mxPoint x="1399.29" y="2170" as="sourcePoint" />
            <mxPoint x="1399" y="2260" as="targetPoint" />
          </mxGeometry>
        </mxCell>
        <mxCell id="o5nmKJmsrvkyFQqaAit6-98" value="&lt;span style=&quot;font-size: 18px&quot;&gt;파일내에&amp;nbsp;&lt;br&gt;Track-&amp;gt; 트랙파일&lt;br&gt;Image -&amp;gt; 커버이미지&amp;nbsp;&lt;br&gt;Lyrics -&amp;gt; 가사파일 삽입&lt;br&gt;&lt;/span&gt;" style="rounded=0;whiteSpace=wrap;html=1;fontStyle=1" vertex="1" parent="o5nmKJmsrvkyFQqaAit6-0">
          <mxGeometry x="1270" y="2260" width="285" height="110" as="geometry" />
        </mxCell>
        <mxCell id="o5nmKJmsrvkyFQqaAit6-99" value="" style="endArrow=classic;html=1;fontStyle=1" edge="1" parent="o5nmKJmsrvkyFQqaAit6-0">
          <mxGeometry width="50" height="50" relative="1" as="geometry">
            <mxPoint x="1399.29" y="2370" as="sourcePoint" />
            <mxPoint x="1399" y="2460" as="targetPoint" />
          </mxGeometry>
        </mxCell>
        <mxCell id="o5nmKJmsrvkyFQqaAit6-100" value="&lt;font style=&quot;font-size: 18px&quot;&gt;DarkNamer 사용해 파일명 한번에 변경&lt;br&gt;앨범 커버 -&amp;gt; 각앨범 UPC&lt;br&gt;가사,트랙 -&amp;gt; 각앨범 ISRC&lt;br&gt;&lt;/font&gt;" style="rounded=0;whiteSpace=wrap;html=1;fontStyle=1" vertex="1" parent="o5nmKJmsrvkyFQqaAit6-0">
          <mxGeometry x="1225" y="2460" width="365" height="100" as="geometry" />
        </mxCell>
        <mxCell id="o5nmKJmsrvkyFQqaAit6-101" value="" style="endArrow=classic;html=1;fontStyle=1" edge="1" parent="o5nmKJmsrvkyFQqaAit6-0">
          <mxGeometry width="50" height="50" relative="1" as="geometry">
            <mxPoint x="1399.58" y="2560" as="sourcePoint" />
            <mxPoint x="1399.29" y="2660" as="targetPoint" />
          </mxGeometry>
        </mxCell>
        <mxCell id="o5nmKJmsrvkyFQqaAit6-102" value="&lt;font style=&quot;font-size: 18px&quot;&gt;FileZilla 를 이용하여 FTP 전송&lt;/font&gt;" style="rounded=0;whiteSpace=wrap;html=1;fontStyle=1" vertex="1" parent="o5nmKJmsrvkyFQqaAit6-0">
          <mxGeometry x="1250" y="2660" width="300" height="60" as="geometry" />
        </mxCell>
        <mxCell id="o5nmKJmsrvkyFQqaAit6-103" value="" style="endArrow=classic;html=1;fontStyle=1" edge="1" parent="o5nmKJmsrvkyFQqaAit6-0">
          <mxGeometry width="50" height="50" relative="1" as="geometry">
            <mxPoint x="1399.87" y="2720" as="sourcePoint" />
            <mxPoint x="1399.29" y="2800" as="targetPoint" />
          </mxGeometry>
        </mxCell>
        <mxCell id="o5nmKJmsrvkyFQqaAit6-104" value="&lt;font style=&quot;font-size: 18px&quot;&gt;유효성 검사를 &lt;br&gt;통과 하였는가?&lt;/font&gt;" style="html=1;whiteSpace=wrap;aspect=fixed;shape=isoRectangle;fontStyle=1" vertex="1" parent="o5nmKJmsrvkyFQqaAit6-0">
          <mxGeometry x="1266.67" y="2800" width="266.67" height="160" as="geometry" />
        </mxCell>
        <mxCell id="o5nmKJmsrvkyFQqaAit6-105" value="" style="edgeStyle=elbowEdgeStyle;elbow=horizontal;endArrow=classic;html=1;entryX=0;entryY=0.5;entryDx=0;entryDy=0;fontStyle=1" edge="1" parent="o5nmKJmsrvkyFQqaAit6-0" target="o5nmKJmsrvkyFQqaAit6-96">
          <mxGeometry width="50" height="50" relative="1" as="geometry">
            <mxPoint x="1270" y="2880" as="sourcePoint" />
            <mxPoint x="1050" y="2112.8571428571427" as="targetPoint" />
            <Array as="points">
              <mxPoint x="1130" y="2672.5" />
            </Array>
          </mxGeometry>
        </mxCell>
        <mxCell id="o5nmKJmsrvkyFQqaAit6-106" value="&lt;span style=&quot;font-size: 18px&quot;&gt;No&lt;/span&gt;" style="text;html=1;strokeColor=none;fillColor=none;align=center;verticalAlign=middle;whiteSpace=wrap;rounded=0;fontStyle=1" vertex="1" parent="o5nmKJmsrvkyFQqaAit6-0">
          <mxGeometry x="1037.59" y="2460" width="80" height="20" as="geometry" />
        </mxCell>
        <mxCell id="o5nmKJmsrvkyFQqaAit6-107" value="&lt;span style=&quot;font-size: 18px&quot;&gt;앨범등록 전송&lt;/span&gt;" style="rounded=0;whiteSpace=wrap;html=1;fontStyle=1" vertex="1" parent="o5nmKJmsrvkyFQqaAit6-0">
          <mxGeometry x="427.5" y="2650" width="185" height="70" as="geometry" />
        </mxCell>
        <mxCell id="o5nmKJmsrvkyFQqaAit6-108" value="&lt;font size=&quot;3&quot;&gt;Bugs ID (앨범, 트랙) 서칭&lt;/font&gt;" style="rounded=0;whiteSpace=wrap;html=1;fontStyle=1" vertex="1" parent="o5nmKJmsrvkyFQqaAit6-0">
          <mxGeometry x="1520" y="270" width="230" height="70" as="geometry" />
        </mxCell>
        <mxCell id="o5nmKJmsrvkyFQqaAit6-109" value="&lt;span style=&quot;font-size: 18px&quot;&gt;아티스트 Apple ID 서칭&lt;/span&gt;" style="rounded=0;whiteSpace=wrap;html=1;fontStyle=1" vertex="1" parent="o5nmKJmsrvkyFQqaAit6-0">
          <mxGeometry x="1520" y="430" width="230" height="70" as="geometry" />
        </mxCell>
        <mxCell id="o5nmKJmsrvkyFQqaAit6-110" value="" style="endArrow=classic;html=1;fontStyle=1" edge="1" parent="o5nmKJmsrvkyFQqaAit6-0">
          <mxGeometry width="50" height="50" relative="1" as="geometry">
            <mxPoint x="1640" y="340" as="sourcePoint" />
            <mxPoint x="1640" y="430" as="targetPoint" />
          </mxGeometry>
        </mxCell>
        <mxCell id="o5nmKJmsrvkyFQqaAit6-111" value="" style="endArrow=classic;html=1;fontStyle=1" edge="1" parent="o5nmKJmsrvkyFQqaAit6-0">
          <mxGeometry width="50" height="50" relative="1" as="geometry">
            <mxPoint x="1640" y="500" as="sourcePoint" />
            <mxPoint x="1640" y="580" as="targetPoint" />
          </mxGeometry>
        </mxCell>
        <mxCell id="o5nmKJmsrvkyFQqaAit6-112" value="&lt;span style=&quot;font-size: 18px&quot;&gt;벅스 크롤링&amp;nbsp;&lt;br&gt;(앨범명, 트랙명, 아티스트,&lt;br&gt;자켓사진,장르,가사)&lt;br&gt;&lt;/span&gt;" style="rounded=0;whiteSpace=wrap;html=1;fontStyle=1" vertex="1" parent="o5nmKJmsrvkyFQqaAit6-0">
          <mxGeometry x="1520" y="580" width="230" height="100" as="geometry" />
        </mxCell>
        <mxCell id="o5nmKJmsrvkyFQqaAit6-113" value="&lt;font style=&quot;font-size: 18px&quot;&gt;유통사 물리파일 수급&lt;/font&gt;" style="rounded=0;whiteSpace=wrap;html=1;fontStyle=1" vertex="1" parent="o5nmKJmsrvkyFQqaAit6-0">
          <mxGeometry x="1520" y="135" width="230" height="70" as="geometry" />
        </mxCell>
        <mxCell id="o5nmKJmsrvkyFQqaAit6-114" value="" style="endArrow=classic;html=1;entryX=0;entryY=0.5;entryDx=0;entryDy=0;fontStyle=1" edge="1" parent="o5nmKJmsrvkyFQqaAit6-0" target="o5nmKJmsrvkyFQqaAit6-113">
          <mxGeometry width="50" height="50" relative="1" as="geometry">
            <mxPoint x="1405" y="170" as="sourcePoint" />
            <mxPoint x="1550" y="170" as="targetPoint" />
          </mxGeometry>
        </mxCell>
        <mxCell id="o5nmKJmsrvkyFQqaAit6-115" value="" style="endArrow=classic;html=1;fontStyle=1" edge="1" parent="o5nmKJmsrvkyFQqaAit6-0">
          <mxGeometry width="50" height="50" relative="1" as="geometry">
            <mxPoint x="1640" y="205" as="sourcePoint" />
            <mxPoint x="1640" y="270" as="targetPoint" />
          </mxGeometry>
        </mxCell>
        <mxCell id="o5nmKJmsrvkyFQqaAit6-116" value="" style="endArrow=classic;html=1;fontStyle=1" edge="1" parent="o5nmKJmsrvkyFQqaAit6-0">
          <mxGeometry width="50" height="50" relative="1" as="geometry">
            <mxPoint x="1639.9999999999995" y="679.9999999999998" as="sourcePoint" />
            <mxPoint x="1639.9999999999995" y="759.9999999999998" as="targetPoint" />
          </mxGeometry>
        </mxCell>
        <mxCell id="o5nmKJmsrvkyFQqaAit6-117" value="&lt;span style=&quot;font-size: 18px&quot;&gt;벅스 크롤링 데이터와&amp;nbsp;&lt;br&gt;트랙리스트 검수를 통해&amp;nbsp;&lt;br&gt;등록제외 앨범 분류&amp;nbsp;&lt;br&gt;&lt;/span&gt;" style="rounded=0;whiteSpace=wrap;html=1;fontStyle=1" vertex="1" parent="o5nmKJmsrvkyFQqaAit6-0">
          <mxGeometry x="1520" y="760" width="230" height="100" as="geometry" />
        </mxCell>
        <mxCell id="o5nmKJmsrvkyFQqaAit6-118" value="" style="endArrow=classic;html=1;fontStyle=1" edge="1" parent="o5nmKJmsrvkyFQqaAit6-0">
          <mxGeometry width="50" height="50" relative="1" as="geometry">
            <mxPoint x="1639.9999999999995" y="859.9999999999998" as="sourcePoint" />
            <mxPoint x="1639.9999999999995" y="939.9999999999998" as="targetPoint" />
          </mxGeometry>
        </mxCell>
        <mxCell id="o5nmKJmsrvkyFQqaAit6-119" value="&lt;span style=&quot;font-size: 18px&quot;&gt;Common Meta&amp;nbsp;&lt;br&gt;형식에 맞추어&amp;nbsp;&lt;br&gt;엑셀 정리&lt;br&gt;&lt;br&gt;&lt;/span&gt;" style="rounded=0;whiteSpace=wrap;html=1;fontStyle=1" vertex="1" parent="o5nmKJmsrvkyFQqaAit6-0">
          <mxGeometry x="1531.8799999999999" y="940" width="216.66" height="110" as="geometry" />
        </mxCell>
        <mxCell id="o5nmKJmsrvkyFQqaAit6-120" value="" style="edgeStyle=elbowEdgeStyle;elbow=vertical;endArrow=classic;html=1;fontStyle=1" edge="1" parent="o5nmKJmsrvkyFQqaAit6-0">
          <mxGeometry width="50" height="50" relative="1" as="geometry">
            <mxPoint x="510" y="2950" as="sourcePoint" />
            <mxPoint x="1320" y="3220" as="targetPoint" />
            <Array as="points">
              <mxPoint x="900" y="3220" />
            </Array>
          </mxGeometry>
        </mxCell>
        <mxCell id="o5nmKJmsrvkyFQqaAit6-121" value="" style="endArrow=classic;html=1;fontStyle=1" edge="1" parent="o5nmKJmsrvkyFQqaAit6-0">
          <mxGeometry width="50" height="50" relative="1" as="geometry">
            <mxPoint x="1400" y="2960" as="sourcePoint" />
            <mxPoint x="1400" y="3160" as="targetPoint" />
          </mxGeometry>
        </mxCell>
        <mxCell id="o5nmKJmsrvkyFQqaAit6-122" value="" style="endArrow=classic;html=1;fontStyle=1;exitX=0.519;exitY=1;exitDx=0;exitDy=0;exitPerimeter=0;" edge="1" parent="o5nmKJmsrvkyFQqaAit6-0" source="o5nmKJmsrvkyFQqaAit6-133">
          <mxGeometry width="50" height="50" relative="1" as="geometry">
            <mxPoint x="1402.5" y="3270" as="sourcePoint" />
            <mxPoint x="1403" y="3400" as="targetPoint" />
          </mxGeometry>
        </mxCell>
        <mxCell id="o5nmKJmsrvkyFQqaAit6-123" value="" style="endArrow=classic;html=1;fontStyle=1;" edge="1" parent="o5nmKJmsrvkyFQqaAit6-0">
          <mxGeometry width="50" height="50" relative="1" as="geometry">
            <mxPoint x="1263" y="3704.17" as="sourcePoint" />
            <mxPoint x="390" y="3700" as="targetPoint" />
          </mxGeometry>
        </mxCell>
        <mxCell id="o5nmKJmsrvkyFQqaAit6-124" value="" style="endArrow=classic;html=1;fontStyle=1;" edge="1" parent="o5nmKJmsrvkyFQqaAit6-0">
          <mxGeometry width="50" height="50" relative="1" as="geometry">
            <mxPoint x="1400" y="3800" as="sourcePoint" />
            <mxPoint x="1400" y="4010" as="targetPoint" />
          </mxGeometry>
        </mxCell>
        <mxCell id="o5nmKJmsrvkyFQqaAit6-125" value="" style="edgeStyle=segmentEdgeStyle;endArrow=classic;html=1;fontStyle=1" edge="1" parent="o5nmKJmsrvkyFQqaAit6-0">
          <mxGeometry width="50" height="50" relative="1" as="geometry">
            <mxPoint x="270" y="3650" as="sourcePoint" />
            <mxPoint x="430" y="2690" as="targetPoint" />
            <Array as="points">
              <mxPoint x="270" y="2690" />
            </Array>
          </mxGeometry>
        </mxCell>
        <mxCell id="o5nmKJmsrvkyFQqaAit6-126" value="" style="edgeStyle=segmentEdgeStyle;endArrow=classic;html=1;exitX=0.5;exitY=1;exitDx=0;exitDy=0;fontStyle=1" edge="1" parent="o5nmKJmsrvkyFQqaAit6-0" source="o5nmKJmsrvkyFQqaAit6-119">
          <mxGeometry width="50" height="50" relative="1" as="geometry">
            <mxPoint x="1640" y="1050" as="sourcePoint" />
            <mxPoint x="1490" y="1970" as="targetPoint" />
            <Array as="points">
              <mxPoint x="1642" y="1970" />
              <mxPoint x="1490" y="1970" />
            </Array>
          </mxGeometry>
        </mxCell>
        <mxCell id="o5nmKJmsrvkyFQqaAit6-127" value="&lt;span style=&quot;font-size: 18px&quot;&gt;Yes&lt;/span&gt;" style="text;html=1;strokeColor=none;fillColor=none;align=center;verticalAlign=middle;whiteSpace=wrap;rounded=0;fontStyle=1" vertex="1" parent="o5nmKJmsrvkyFQqaAit6-0">
          <mxGeometry x="1117.5900000000001" y="135" width="120" height="20" as="geometry" />
        </mxCell>
        <mxCell id="o5nmKJmsrvkyFQqaAit6-130" value="&lt;span style=&quot;font-size: 18px&quot;&gt;Yes&lt;/span&gt;" style="text;html=1;strokeColor=none;fillColor=none;align=center;verticalAlign=middle;whiteSpace=wrap;rounded=0;fontStyle=1" vertex="1" parent="o5nmKJmsrvkyFQqaAit6-0">
          <mxGeometry x="860" y="3160" width="80" height="20" as="geometry" />
        </mxCell>
        <mxCell id="o5nmKJmsrvkyFQqaAit6-131" value="&lt;span style=&quot;font-size: 18px&quot;&gt;Yes&lt;/span&gt;" style="text;html=1;strokeColor=none;fillColor=none;align=center;verticalAlign=middle;whiteSpace=wrap;rounded=0;fontStyle=1" vertex="1" parent="o5nmKJmsrvkyFQqaAit6-0">
          <mxGeometry x="1425" y="3040" width="80" height="20" as="geometry" />
        </mxCell>
        <mxCell id="o5nmKJmsrvkyFQqaAit6-132" value="" style="shape=sumEllipse;perimeter=ellipsePerimeter;whiteSpace=wrap;html=1;backgroundOutline=1;fontStyle=1" vertex="1" parent="o5nmKJmsrvkyFQqaAit6-0">
          <mxGeometry x="480" y="950" width="60" height="65" as="geometry" />
        </mxCell>
        <mxCell id="o5nmKJmsrvkyFQqaAit6-133" value="&lt;span style=&quot;font-size: 18px&quot;&gt;구CMS앨범등록&lt;/span&gt;" style="rounded=0;whiteSpace=wrap;html=1;fontStyle=1" vertex="1" parent="o5nmKJmsrvkyFQqaAit6-0">
          <mxGeometry x="1320.01" y="3160" width="160" height="100" as="geometry" />
        </mxCell>
        <mxCell id="uZy1ANXY-yuiv8WTP3JA-0" value="&lt;span style=&quot;font-size: 18px&quot;&gt;&lt;font color=&quot;#ff0000&quot;&gt;휴먼에러&amp;nbsp;&lt;br&gt;(발매일시, 제외국가, 플랫폼)&lt;br&gt;(공지메일 누락)&lt;/font&gt;&lt;br&gt;&lt;/span&gt;" style="text;html=1;strokeColor=none;fillColor=none;align=center;verticalAlign=middle;whiteSpace=wrap;rounded=0;fontStyle=1" vertex="1" parent="o5nmKJmsrvkyFQqaAit6-0">
          <mxGeometry x="1110" y="447.5" width="280" height="120" as="geometry" />
        </mxCell>
        <mxCell id="uZy1ANXY-yuiv8WTP3JA-2" value="&lt;span style=&quot;font-size: 36px&quot;&gt;&lt;font color=&quot;#ff0000&quot;&gt;&amp;nbsp;red&amp;nbsp; &lt;/font&gt;-&amp;gt;&amp;nbsp; 휴먼에러&lt;br&gt;&lt;font color=&quot;#3399ff&quot;&gt;&amp;nbsp; &amp;nbsp; &amp;nbsp; &amp;nbsp; &amp;nbsp; &amp;nbsp; &amp;nbsp; &amp;nbsp; &amp;nbsp; &amp;nbsp; &amp;nbsp; &amp;nbsp; &amp;nbsp; &amp;nbsp; &amp;nbsp; &amp;nbsp; &amp;nbsp; &amp;nbsp; &amp;nbsp; &amp;nbsp;blue&amp;nbsp;&lt;/font&gt;-&amp;gt; 애플뮤직스타일 가이드 관련 에러&lt;br&gt;&amp;nbsp; &amp;nbsp; &amp;nbsp; &amp;nbsp; &amp;nbsp; &amp;nbsp; &amp;nbsp; &amp;nbsp; &amp;nbsp; &amp;nbsp; &amp;nbsp; &amp;nbsp; &amp;nbsp; &amp;nbsp; &amp;nbsp; &amp;nbsp; &amp;nbsp; &amp;nbsp; &amp;nbsp; &amp;nbsp; &amp;nbsp; &amp;nbsp; &amp;nbsp; &amp;nbsp;&amp;nbsp;&lt;font color=&quot;#ff00ff&quot;&gt;purple&lt;/font&gt; -&amp;gt; 개발팀 운영팀과의 협업 및 기타 문제사항&lt;br&gt;&lt;/span&gt;" style="text;html=1;align=center;verticalAlign=middle;resizable=0;points=[];autosize=1;" vertex="1" parent="o5nmKJmsrvkyFQqaAit6-0">
          <mxGeometry x="-175" y="50" width="1310" height="70" as="geometry" />
        </mxCell>
        <mxCell id="uZy1ANXY-yuiv8WTP3JA-8" value="&lt;span style=&quot;font-size: 18px&quot;&gt;&lt;font color=&quot;#ff0000&quot;&gt;휴먼에러&amp;nbsp;&lt;br&gt;(발매일시, 제외국가, 플랫폼)&lt;br&gt;(공지메일 누락)&lt;/font&gt;&lt;br&gt;&lt;/span&gt;" style="text;html=1;strokeColor=none;fillColor=none;align=center;verticalAlign=middle;whiteSpace=wrap;rounded=0;fontStyle=1" vertex="1" parent="o5nmKJmsrvkyFQqaAit6-0">
          <mxGeometry x="620" y="790" width="280" height="120" as="geometry" />
        </mxCell>
        <mxCell id="cQsfnl0oaJQd0j78hZBY-0" value="&lt;span style=&quot;font-size: 18px&quot;&gt;&lt;font color=&quot;#3399ff&quot;&gt;휴먼에러&amp;nbsp;&lt;br&gt;애플 뮤직 스타일가이드&lt;br&gt;미확인 상태로 검수&lt;/font&gt;&lt;br&gt;&lt;/span&gt;" style="text;html=1;strokeColor=none;fillColor=none;align=center;verticalAlign=middle;whiteSpace=wrap;rounded=0;fontStyle=1" vertex="1" parent="o5nmKJmsrvkyFQqaAit6-0">
          <mxGeometry x="480" y="1210" width="280" height="120" as="geometry" />
        </mxCell>
        <mxCell id="cQsfnl0oaJQd0j78hZBY-1" value="&lt;span style=&quot;font-size: 18px&quot;&gt;&lt;font color=&quot;#3399ff&quot;&gt;&amp;nbsp;&lt;br&gt;애플 뮤직 스타일가이드&lt;br&gt;미준수&lt;/font&gt;&lt;br&gt;&lt;/span&gt;" style="text;html=1;strokeColor=none;fillColor=none;align=center;verticalAlign=middle;whiteSpace=wrap;rounded=0;fontStyle=1" vertex="1" parent="o5nmKJmsrvkyFQqaAit6-0">
          <mxGeometry x="1490" y="2050" width="280" height="120" as="geometry" />
        </mxCell>
        <mxCell id="cQsfnl0oaJQd0j78hZBY-3" value="&lt;font color=&quot;#ff00ff&quot;&gt;&lt;span style=&quot;font-family: &amp;#34;helvetica&amp;#34; ; font-size: 18px ; font-style: normal ; font-weight: 700 ; letter-spacing: normal ; text-align: center ; text-indent: 0px ; text-transform: none ; word-spacing: 0px ; display: inline ; float: none&quot;&gt;&amp;nbsp; &amp;nbsp; &amp;nbsp; &amp;nbsp; &amp;nbsp; &amp;nbsp; &amp;nbsp; &amp;nbsp;시스템 요구사항 및 휴먼 에러&amp;nbsp;&lt;/span&gt;&lt;br style=&quot;font-family: &amp;#34;helvetica&amp;#34; ; font-size: 18px ; font-style: normal ; font-weight: 700 ; letter-spacing: normal ; text-align: center ; text-indent: 0px ; text-transform: none ; word-spacing: 0px&quot;&gt;&lt;span style=&quot;font-family: &amp;#34;helvetica&amp;#34; ; font-size: 18px ; font-style: normal ; font-weight: 700 ; letter-spacing: normal ; text-align: center ; text-indent: 0px ; text-transform: none ; word-spacing: 0px ; display: inline ; float: none&quot;&gt;&amp;nbsp; &amp;nbsp; &amp;nbsp; &amp;nbsp; &amp;nbsp; &amp;nbsp; &amp;nbsp; (제외국가, 제외플랫폼 누락)&lt;/span&gt;&lt;/font&gt;" style="text;whiteSpace=wrap;html=1;" vertex="1" parent="o5nmKJmsrvkyFQqaAit6-0">
          <mxGeometry x="570" y="2270" width="350" height="110" as="geometry" />
        </mxCell>
        <mxCell id="cQsfnl0oaJQd0j78hZBY-4" value="&lt;span style=&quot;font-size: 18px&quot;&gt;&lt;font color=&quot;#3399ff&quot;&gt;&amp;nbsp;&lt;br&gt;애플 뮤직 스타일가이드&lt;br&gt;미준수&lt;/font&gt;&lt;br&gt;&lt;/span&gt;" style="text;html=1;strokeColor=none;fillColor=none;align=center;verticalAlign=middle;whiteSpace=wrap;rounded=0;fontStyle=1" vertex="1" parent="o5nmKJmsrvkyFQqaAit6-0">
          <mxGeometry x="140" y="2420" width="280" height="120" as="geometry" />
        </mxCell>
        <mxCell id="cQsfnl0oaJQd0j78hZBY-6" value="&lt;font color=&quot;#ff00ff&quot;&gt;&lt;span style=&quot;font-family: &amp;#34;helvetica&amp;#34; ; font-size: 18px ; font-style: normal ; font-weight: 700 ; letter-spacing: normal ; text-align: center ; text-indent: 0px ; text-transform: none ; word-spacing: 0px ; display: inline ; float: none&quot;&gt;&amp;nbsp; &amp;nbsp; &amp;nbsp; &amp;nbsp; &amp;nbsp; &amp;nbsp; &amp;nbsp; &amp;nbsp; &amp;nbsp; &amp;nbsp; 시스템 요구사항&amp;nbsp;&amp;nbsp;&lt;/span&gt;&lt;br style=&quot;font-family: &amp;#34;helvetica&amp;#34; ; font-size: 18px ; font-style: normal ; font-weight: 700 ; letter-spacing: normal ; text-align: center ; text-indent: 0px ; text-transform: none ; word-spacing: 0px&quot;&gt;&lt;span style=&quot;font-family: &amp;#34;helvetica&amp;#34; ; font-size: 18px ; font-style: normal ; font-weight: 700 ; letter-spacing: normal ; text-align: center ; text-indent: 0px ; text-transform: none ; word-spacing: 0px ; display: inline ; float: none&quot;&gt;&amp;nbsp; &amp;nbsp; &amp;nbsp; &amp;nbsp; &amp;nbsp; &amp;nbsp; &amp;nbsp; 신규 CMS 에서의 전송기능이&amp;nbsp;&lt;br&gt;&amp;nbsp; &amp;nbsp; &amp;nbsp; &amp;nbsp; &amp;nbsp; &amp;nbsp; &amp;nbsp; &amp;nbsp; &amp;nbsp; &amp;nbsp;추가되어야함&amp;nbsp;&lt;br&gt;&lt;/span&gt;&lt;/font&gt;" style="text;whiteSpace=wrap;html=1;" vertex="1" parent="o5nmKJmsrvkyFQqaAit6-0">
          <mxGeometry x="445" y="1990" width="350" height="110" as="geometry" />
        </mxCell>
        <mxCell id="cQsfnl0oaJQd0j78hZBY-7" value="&lt;span style=&quot;font-size: 18px&quot;&gt;&lt;font color=&quot;#ff0000&quot;&gt;휴먼에러 + 시스템 요구사항&lt;br&gt;(아티스트 누락과 역할 mismatch )&lt;br&gt;&lt;/font&gt;&lt;/span&gt;&lt;span style=&quot;color: rgb(51 , 153 , 255) ; font-size: 18px&quot;&gt;+ 이로 인한 apple ticket&lt;/span&gt;&lt;span style=&quot;font-size: 18px&quot;&gt;&lt;br&gt;&lt;/span&gt;" style="text;html=1;strokeColor=none;fillColor=none;align=center;verticalAlign=middle;whiteSpace=wrap;rounded=0;fontStyle=1" vertex="1" parent="o5nmKJmsrvkyFQqaAit6-0">
          <mxGeometry x="70" y="2245" width="338.14" height="120" as="geometry" />
        </mxCell>
        <mxCell id="cQsfnl0oaJQd0j78hZBY-8" value="&lt;span style=&quot;font-size: 18px&quot;&gt;&lt;font color=&quot;#ff0000&quot;&gt;국내 플랫폼 확인 중 휴먼에러&amp;nbsp;&lt;br&gt;&lt;/font&gt;&lt;br&gt;&lt;/span&gt;" style="text;html=1;strokeColor=none;fillColor=none;align=center;verticalAlign=middle;whiteSpace=wrap;rounded=0;fontStyle=1" vertex="1" parent="o5nmKJmsrvkyFQqaAit6-0">
          <mxGeometry x="94.3599999999999" y="2470" width="338.14" height="120" as="geometry" />
        </mxCell>
        <mxCell id="cQsfnl0oaJQd0j78hZBY-9" value="&lt;span style=&quot;font-size: 18px&quot;&gt;&lt;font color=&quot;#ff0000&quot;&gt;휴먼에러&amp;nbsp;&lt;br&gt;앨범과 노래 mismatch&lt;br&gt;&lt;/font&gt;&lt;/span&gt;&lt;span style=&quot;color: rgb(51 , 153 , 255) ; font-size: 18px&quot;&gt;+ 이로 인한 apple ticket&lt;/span&gt;&lt;span style=&quot;font-size: 18px&quot;&gt;&lt;br&gt;&lt;/span&gt;" style="text;html=1;strokeColor=none;fillColor=none;align=center;verticalAlign=middle;whiteSpace=wrap;rounded=0;fontStyle=1" vertex="1" parent="o5nmKJmsrvkyFQqaAit6-0">
          <mxGeometry x="1580" y="2450" width="280" height="120" as="geometry" />
        </mxCell>
        <mxCell id="cQsfnl0oaJQd0j78hZBY-10" value="&lt;font color=&quot;#ff00ff&quot;&gt;&lt;span style=&quot;font-family: &amp;#34;helvetica&amp;#34; ; font-size: 18px ; font-style: normal ; font-weight: 700 ; letter-spacing: normal ; text-align: center ; text-indent: 0px ; text-transform: none ; word-spacing: 0px ; display: inline ; float: none&quot;&gt;&amp;nbsp; &amp;nbsp; &amp;nbsp; &amp;nbsp; &amp;nbsp; &amp;nbsp; &amp;nbsp; &amp;nbsp;앨범 전송오류&amp;nbsp;&amp;nbsp;&lt;/span&gt;&lt;br style=&quot;font-family: &amp;#34;helvetica&amp;#34; ; font-size: 18px ; font-style: normal ; font-weight: 700 ; letter-spacing: normal ; text-align: center ; text-indent: 0px ; text-transform: none ; word-spacing: 0px&quot;&gt;&lt;span style=&quot;font-family: &amp;#34;helvetica&amp;#34; ; font-size: 18px ; font-style: normal ; font-weight: 700 ; letter-spacing: normal ; text-align: center ; text-indent: 0px ; text-transform: none ; word-spacing: 0px ; display: inline ; float: none&quot;&gt;&amp;nbsp; &amp;nbsp; &amp;nbsp; &amp;nbsp; &amp;nbsp; &amp;nbsp; &amp;nbsp; (사유가 많고 운영팀 확인불가능&lt;br&gt;&amp;nbsp; &amp;nbsp; &amp;nbsp; &amp;nbsp; &amp;nbsp; &amp;nbsp; &amp;nbsp; &amp;nbsp;개발팀과의 협업 필요 )&lt;/span&gt;&lt;/font&gt;" style="text;whiteSpace=wrap;html=1;" vertex="1" parent="o5nmKJmsrvkyFQqaAit6-0">
          <mxGeometry x="1465.21" y="3410" width="350" height="110" as="geometry" />
        </mxCell>
        <mxCell id="cQsfnl0oaJQd0j78hZBY-11" value="&lt;font color=&quot;#ff00ff&quot;&gt;&lt;span style=&quot;font-family: &amp;#34;helvetica&amp;#34; ; font-size: 18px ; font-style: normal ; font-weight: 700 ; letter-spacing: normal ; text-align: center ; text-indent: 0px ; text-transform: none ; word-spacing: 0px ; display: inline ; float: none&quot;&gt;&amp;nbsp; &amp;nbsp; &amp;nbsp; &amp;nbsp; &amp;nbsp; &amp;nbsp; &amp;nbsp; &amp;nbsp;CMS 가 없는 플랫폼들은&amp;nbsp;&lt;br&gt;&amp;nbsp; &amp;nbsp; &amp;nbsp; &amp;nbsp; &amp;nbsp; &amp;nbsp; &amp;nbsp; &amp;nbsp;Ingest 확인이 어려움&amp;nbsp; &amp;nbsp;&lt;/span&gt;&lt;br style=&quot;font-family: &amp;#34;helvetica&amp;#34; ; font-size: 18px ; font-style: normal ; font-weight: 700 ; letter-spacing: normal ; text-align: center ; text-indent: 0px ; text-transform: none ; word-spacing: 0px&quot;&gt;&lt;span style=&quot;font-family: &amp;#34;helvetica&amp;#34; ; font-size: 18px ; font-style: normal ; font-weight: 700 ; letter-spacing: normal ; text-align: center ; text-indent: 0px ; text-transform: none ; word-spacing: 0px ; display: inline ; float: none&quot;&gt;&amp;nbsp; &amp;nbsp; &amp;nbsp; &amp;nbsp; &amp;nbsp; &amp;nbsp;&amp;nbsp;&lt;br&gt;&amp;nbsp; &amp;nbsp; &amp;nbsp; &amp;nbsp; &amp;nbsp; &amp;nbsp; &amp;nbsp;&lt;/span&gt;&lt;/font&gt;" style="text;whiteSpace=wrap;html=1;" vertex="1" parent="o5nmKJmsrvkyFQqaAit6-0">
          <mxGeometry x="1405" y="3770" width="350" height="110" as="geometry" />
        </mxCell>
        <mxCell id="cQsfnl0oaJQd0j78hZBY-12" value="&lt;font color=&quot;#ff00ff&quot;&gt;&lt;span style=&quot;font-family: &amp;#34;helvetica&amp;#34; ; font-size: 18px ; font-style: normal ; font-weight: 700 ; letter-spacing: normal ; text-align: center ; text-indent: 0px ; text-transform: none ; word-spacing: 0px ; display: inline ; float: none&quot;&gt;&amp;nbsp; &amp;nbsp; &amp;nbsp; &amp;nbsp; &amp;nbsp; &amp;nbsp; &amp;nbsp; &amp;nbsp;플랫폼 문의시에 답장이 늦거나&amp;nbsp;&lt;br&gt;&amp;nbsp; &amp;nbsp; &amp;nbsp; &amp;nbsp; &amp;nbsp; &amp;nbsp; &amp;nbsp; &amp;nbsp;없음 + 추후 담당자 트랙킹 안됨&lt;br&gt;&amp;nbsp; &amp;nbsp; &amp;nbsp; &amp;nbsp; &amp;nbsp; &amp;nbsp; &amp;nbsp;&amp;nbsp;&lt;/span&gt;&lt;br style=&quot;font-family: &amp;#34;helvetica&amp;#34; ; font-size: 18px ; font-style: normal ; font-weight: 700 ; letter-spacing: normal ; text-align: center ; text-indent: 0px ; text-transform: none ; word-spacing: 0px&quot;&gt;&lt;span style=&quot;font-family: &amp;#34;helvetica&amp;#34; ; font-size: 18px ; font-style: normal ; font-weight: 700 ; letter-spacing: normal ; text-align: center ; text-indent: 0px ; text-transform: none ; word-spacing: 0px ; display: inline ; float: none&quot;&gt;&amp;nbsp; &amp;nbsp; &amp;nbsp; &amp;nbsp; &amp;nbsp; &amp;nbsp;&amp;nbsp;&lt;br&gt;&amp;nbsp; &amp;nbsp; &amp;nbsp; &amp;nbsp; &amp;nbsp; &amp;nbsp; &amp;nbsp;&lt;/span&gt;&lt;/font&gt;" style="text;whiteSpace=wrap;html=1;" vertex="1" parent="o5nmKJmsrvkyFQqaAit6-0">
          <mxGeometry x="220" y="3590" width="350" height="110" as="geometry" />
        </mxCell>
        <mxCell id="o5nmKJmsrvkyFQqaAit6-134" value="&lt;span style=&quot;font-size: 18px&quot;&gt;해외 플랫폼 정상 등록 확인&lt;/span&gt;" style="rounded=0;whiteSpace=wrap;html=1;fontStyle=1" vertex="1" parent="ot4OCTmgo1wimuUBw3FC-1">
          <mxGeometry x="2218.13" y="4520" width="263.75" height="60" as="geometry" />
        </mxCell>
        <mxCell id="o5nmKJmsrvkyFQqaAit6-135" value="&lt;span style=&quot;font-size: 18px&quot;&gt;음원등록 구 CMS 페이지에&lt;br&gt;서비스 링크 Live&amp;nbsp;&lt;br&gt;확인+ 실서비스 되는가?&lt;br&gt;&lt;/span&gt;" style="rhombus;whiteSpace=wrap;html=1;fontStyle=1" vertex="1" parent="ot4OCTmgo1wimuUBw3FC-1">
          <mxGeometry x="2200" y="4080" width="300" height="240" as="geometry" />
        </mxCell>
        <mxCell id="o5nmKJmsrvkyFQqaAit6-136" value="" style="endArrow=classic;html=1;fontStyle=1" edge="1" parent="ot4OCTmgo1wimuUBw3FC-1">
          <mxGeometry width="50" height="50" relative="1" as="geometry">
            <mxPoint x="2349.34" y="4310" as="sourcePoint" />
            <mxPoint x="2349" y="4520" as="targetPoint" />
          </mxGeometry>
        </mxCell>
        <mxCell id="o5nmKJmsrvkyFQqaAit6-137" value="&lt;span style=&quot;font-size: 18px&quot;&gt;Yes&lt;br&gt;(서비스되고 정상적으로 링크 확인)&lt;br&gt;&lt;/span&gt;" style="text;html=1;strokeColor=none;fillColor=none;align=center;verticalAlign=middle;whiteSpace=wrap;rounded=0;fontStyle=1" vertex="1" parent="ot4OCTmgo1wimuUBw3FC-1">
          <mxGeometry x="2340" y="4390" width="320" height="70" as="geometry" />
        </mxCell>
        <mxCell id="o5nmKJmsrvkyFQqaAit6-138" value="&lt;span style=&quot;font-size: 18px&quot;&gt;No&lt;/span&gt;" style="text;html=1;strokeColor=none;fillColor=none;align=center;verticalAlign=middle;whiteSpace=wrap;rounded=0;fontStyle=1" vertex="1" parent="ot4OCTmgo1wimuUBw3FC-1">
          <mxGeometry x="1680" y="4220" width="80" height="20" as="geometry" />
        </mxCell>
        <mxCell id="o5nmKJmsrvkyFQqaAit6-141" value="" style="edgeStyle=segmentEdgeStyle;endArrow=classic;html=1;" edge="1" parent="ot4OCTmgo1wimuUBw3FC-1">
          <mxGeometry width="50" height="50" relative="1" as="geometry">
            <mxPoint x="2200" y="4200" as="sourcePoint" />
            <mxPoint x="1220" y="3810" as="targetPoint" />
            <Array as="points">
              <mxPoint x="1220" y="4200" />
              <mxPoint x="1220" y="4150" />
            </Array>
          </mxGeometry>
        </mxCell>
        <mxCell id="uZy1ANXY-yuiv8WTP3JA-4" value="&lt;span style=&quot;font-size: 18px&quot;&gt;&lt;font color=&quot;#ff0000&quot;&gt;휴먼에러 잘못된 id 서치&lt;/font&gt;&lt;br&gt;&lt;/span&gt;" style="text;html=1;strokeColor=none;fillColor=none;align=center;verticalAlign=middle;whiteSpace=wrap;rounded=0;fontStyle=1" vertex="1" parent="ot4OCTmgo1wimuUBw3FC-1">
          <mxGeometry x="2660" y="320" width="280" height="120" as="geometry" />
        </mxCell>
        <mxCell id="uZy1ANXY-yuiv8WTP3JA-5" value="&lt;span style=&quot;font-size: 18px&quot;&gt;&lt;font color=&quot;#ff0000&quot;&gt;휴먼에러 잘못된 id 서치&lt;/font&gt;&lt;br&gt;&lt;/span&gt;" style="text;html=1;strokeColor=none;fillColor=none;align=center;verticalAlign=middle;whiteSpace=wrap;rounded=0;fontStyle=1" vertex="1" parent="ot4OCTmgo1wimuUBw3FC-1">
          <mxGeometry x="2660" y="480" width="280" height="120" as="geometry" />
        </mxCell>
        <mxCell id="uZy1ANXY-yuiv8WTP3JA-6" value="&lt;span style=&quot;font-size: 18px&quot;&gt;&lt;font color=&quot;#ff0000&quot;&gt;휴먼에러 잘못된 id 서치&lt;/font&gt;&lt;br&gt;&lt;/span&gt;" style="text;html=1;strokeColor=none;fillColor=none;align=center;verticalAlign=middle;whiteSpace=wrap;rounded=0;fontStyle=1" vertex="1" parent="ot4OCTmgo1wimuUBw3FC-1">
          <mxGeometry x="2660" y="640" width="280" height="120" as="geometry" />
        </mxCell>
        <mxCell id="uZy1ANXY-yuiv8WTP3JA-7" value="&lt;font color=&quot;#ff0000&quot; style=&quot;font-size: 18px&quot;&gt;등록제외 앨범 기준이 애매함&lt;/font&gt;" style="text;html=1;strokeColor=none;fillColor=none;align=center;verticalAlign=middle;whiteSpace=wrap;rounded=0;fontStyle=1" vertex="1" parent="ot4OCTmgo1wimuUBw3FC-1">
          <mxGeometry x="2680" y="820" width="280" height="120" as="geometry" />
        </mxCell>
        <mxCell id="cQsfnl0oaJQd0j78hZBY-13" value="&lt;font color=&quot;#ff00ff&quot;&gt;&lt;span style=&quot;font-family: &amp;#34;helvetica&amp;#34; ; font-size: 18px ; font-style: normal ; font-weight: 700 ; letter-spacing: normal ; text-align: center ; text-indent: 0px ; text-transform: none ; word-spacing: 0px ; display: inline ; float: none&quot;&gt;&amp;nbsp; &amp;nbsp; &amp;nbsp; &amp;nbsp; &amp;nbsp; &amp;nbsp; &amp;nbsp; &amp;nbsp;Live 링크가 확실하지도 않고&amp;nbsp;&lt;br&gt;&amp;nbsp; &amp;nbsp; &amp;nbsp; &amp;nbsp; &amp;nbsp; &amp;nbsp; &amp;nbsp; &amp;nbsp;서비스가 되어도 안달려 있는 경우도 있고 &lt;br&gt;&amp;nbsp; &amp;nbsp; &amp;nbsp;제대로 확인이 안될경우 직접 서치해서 확인해야함&amp;nbsp;&lt;/span&gt;&lt;br style=&quot;font-family: &amp;#34;helvetica&amp;#34; ; font-size: 18px ; font-style: normal ; font-weight: 700 ; letter-spacing: normal ; text-align: center ; text-indent: 0px ; text-transform: none ; word-spacing: 0px&quot;&gt;&lt;span style=&quot;font-family: &amp;#34;helvetica&amp;#34; ; font-size: 18px ; font-style: normal ; font-weight: 700 ; letter-spacing: normal ; text-align: center ; text-indent: 0px ; text-transform: none ; word-spacing: 0px ; display: inline ; float: none&quot;&gt;&amp;nbsp; &amp;nbsp; &amp;nbsp; &amp;nbsp; &amp;nbsp; &amp;nbsp;&amp;nbsp;&lt;br&gt;&amp;nbsp; &amp;nbsp; &amp;nbsp; &amp;nbsp; &amp;nbsp; &amp;nbsp; &amp;nbsp;&lt;/span&gt;&lt;/font&gt;" style="text;whiteSpace=wrap;html=1;" vertex="1" parent="ot4OCTmgo1wimuUBw3FC-1">
          <mxGeometry x="2380" y="4240" width="440" height="110" as="geometry" />
        </mxCell>
      </root>
    </mxGraphModel>
  </diagram>
</mxfile>
